# Low-poly cone loudspeaker for Unity
# Dimensions: 0.8 wide x 0.8 high x 1.0 long; 1 OBJ unit = 1 meter
mtllib low_poly_loudspeaker.mtl
o LowPoly_Loudspeaker
v 0.180000 0.000000 -0.500000
v 0.155885 0.090000 -0.500000
v 0.090000 0.155885 -0.500000
v 0.000000 0.180000 -0.500000
v -0.090000 0.155885 -0.500000
v -0.155885 0.090000 -0.500000
v -0.180000 0.000000 -0.500000
v -0.155885 -0.090000 -0.500000
v -0.090000 -0.155885 -0.500000
v -0.000000 -0.180000 -0.500000
v 0.090000 -0.155885 -0.500000
v 0.155885 -0.090000 -0.500000
v 0.180000 0.000000 -0.250000
v 0.155885 0.090000 -0.250000
v 0.090000 0.155885 -0.250000
v 0.000000 0.180000 -0.250000
v -0.090000 0.155885 -0.250000
v -0.155885 0.090000 -0.250000
v -0.180000 0.000000 -0.250000
v -0.155885 -0.090000 -0.250000
v -0.090000 -0.155885 -0.250000
v -0.000000 -0.180000 -0.250000
v 0.090000 -0.155885 -0.250000
v 0.155885 -0.090000 -0.250000
v 0.160000 0.000000 -0.280000
v 0.138564 0.080000 -0.280000
v 0.080000 0.138564 -0.280000
v 0.000000 0.160000 -0.280000
v -0.080000 0.138564 -0.280000
v -0.138564 0.080000 -0.280000
v -0.160000 0.000000 -0.280000
v -0.138564 -0.080000 -0.280000
v -0.080000 -0.138564 -0.280000
v -0.000000 -0.160000 -0.280000
v 0.080000 -0.138564 -0.280000
v 0.138564 -0.080000 -0.280000
v 0.340000 0.000000 0.380000
v 0.294449 0.170000 0.380000
v 0.170000 0.294449 0.380000
v 0.000000 0.340000 0.380000
v -0.170000 0.294449 0.380000
v -0.294449 0.170000 0.380000
v -0.340000 0.000000 0.380000
v -0.294449 -0.170000 0.380000
v -0.170000 -0.294449 0.380000
v -0.000000 -0.340000 0.380000
v 0.170000 -0.294449 0.380000
v 0.294449 -0.170000 0.380000
v 0.400000 0.000000 0.500000
v 0.346410 0.200000 0.500000
v 0.200000 0.346410 0.500000
v 0.000000 0.400000 0.500000
v -0.200000 0.346410 0.500000
v -0.346410 0.200000 0.500000
v -0.400000 0.000000 0.500000
v -0.346410 -0.200000 0.500000
v -0.200000 -0.346410 0.500000
v -0.000000 -0.400000 0.500000
v 0.200000 -0.346410 0.500000
v 0.346410 -0.200000 0.500000
v 0.350000 0.000000 0.500000
v 0.303109 0.175000 0.500000
v 0.175000 0.303109 0.500000
v 0.000000 0.350000 0.500000
v -0.175000 0.303109 0.500000
v -0.303109 0.175000 0.500000
v -0.350000 0.000000 0.500000
v -0.303109 -0.175000 0.500000
v -0.175000 -0.303109 0.500000
v -0.000000 -0.350000 0.500000
v 0.175000 -0.303109 0.500000
v 0.303109 -0.175000 0.500000
v 0.300000 0.000000 0.380000
v 0.259808 0.150000 0.380000
v 0.150000 0.259808 0.380000
v 0.000000 0.300000 0.380000
v -0.150000 0.259808 0.380000
v -0.259808 0.150000 0.380000
v -0.300000 0.000000 0.380000
v -0.259808 -0.150000 0.380000
v -0.150000 -0.259808 0.380000
v -0.000000 -0.300000 0.380000
v 0.150000 -0.259808 0.380000
v 0.259808 -0.150000 0.380000
v 0.110000 0.000000 -0.280000
v 0.095263 0.055000 -0.280000
v 0.055000 0.095263 -0.280000
v 0.000000 0.110000 -0.280000
v -0.055000 0.095263 -0.280000
v -0.095263 0.055000 -0.280000
v -0.110000 0.000000 -0.280000
v -0.095263 -0.055000 -0.280000
v -0.055000 -0.095263 -0.280000
v -0.000000 -0.110000 -0.280000
v 0.055000 -0.095263 -0.280000
v 0.095263 -0.055000 -0.280000
v 0.000000 0.000000 -0.500000
v 0.000000 0.000000 -0.280000
g Housing
usemtl Housing
s off
f 1 2 14 13
f 2 3 15 14
f 3 4 16 15
f 4 5 17 16
f 5 6 18 17
f 6 7 19 18
f 7 8 20 19
f 8 9 21 20
f 9 10 22 21
f 10 11 23 22
f 11 12 24 23
f 12 1 13 24
g Housing
usemtl Housing
s off
f 2 1 97
f 3 2 97
f 4 3 97
f 5 4 97
f 6 5 97
f 7 6 97
f 8 7 97
f 9 8 97
f 10 9 97
f 11 10 97
f 12 11 97
f 1 12 97
g Horn
usemtl Horn
s off
f 25 26 38 37
f 26 27 39 38
f 27 28 40 39
f 28 29 41 40
f 29 30 42 41
f 30 31 43 42
f 31 32 44 43
f 32 33 45 44
f 33 34 46 45
f 34 35 47 46
f 35 36 48 47
f 36 25 37 48
g Horn
usemtl Horn
s off
f 37 38 50 49
f 38 39 51 50
f 39 40 52 51
f 40 41 53 52
f 41 42 54 53
f 42 43 55 54
f 43 44 56 55
f 44 45 57 56
f 45 46 58 57
f 46 47 59 58
f 47 48 60 59
f 48 37 49 60
g Cone
usemtl Cone
s off
f 61 62 74 73
f 62 63 75 74
f 63 64 76 75
f 64 65 77 76
f 65 66 78 77
f 66 67 79 78
f 67 68 80 79
f 68 69 81 80
f 69 70 82 81
f 70 71 83 82
f 71 72 84 83
f 72 61 73 84
g Cone
usemtl Cone
s off
f 73 74 86 85
f 74 75 87 86
f 75 76 88 87
f 76 77 89 88
f 77 78 90 89
f 78 79 91 90
f 79 80 92 91
f 80 81 93 92
f 81 82 94 93
f 82 83 95 94
f 83 84 96 95
f 84 73 85 96
g Rim
usemtl Rim
s off
f 49 50 62 61
f 50 51 63 62
f 51 52 64 63
f 52 53 65 64
f 53 54 66 65
f 54 55 67 66
f 55 56 68 67
f 56 57 69 68
f 57 58 70 69
f 58 59 71 70
f 59 60 72 71
f 60 49 61 72
g Housing
usemtl Housing
s off
f 13 14 26 25
f 14 15 27 26
f 15 16 28 27
f 16 17 29 28
f 17 18 30 29
f 18 19 31 30
f 19 20 32 31
f 20 21 33 32
f 21 22 34 33
f 22 23 35 34
f 23 24 36 35
f 24 13 25 36
g Cone
usemtl Cone
s off
f 25 26 86 85
f 26 27 87 86
f 27 28 88 87
f 28 29 89 88
f 29 30 90 89
f 30 31 91 90
f 31 32 92 91
f 32 33 93 92
f 33 34 94 93
f 34 35 95 94
f 35 36 96 95
f 36 25 85 96
g Driver
usemtl Driver
s off
f 98 85 86
f 98 86 87
f 98 87 88
f 98 88 89
f 98 89 90
f 98 90 91
f 98 91 92
f 98 92 93
f 98 93 94
f 98 94 95
f 98 95 96
f 98 96 85
