# Separate Unity mesh: Base_Foot
mtllib ../LowPolyMerryGoRound.mtl
o Base_Foot
s off
usemtl Paint_Dark
v 3.450000 -0.140000 -0.000000
v 3.187384 -0.140000 -1.320258
v 2.439518 -0.140000 -2.439518
v 1.320258 -0.140000 -3.187384
v 0.000000 -0.140000 -3.450000
v -1.320258 -0.140000 -3.187384
v -2.439518 -0.140000 -2.439518
v -3.187384 -0.140000 -1.320258
v -3.450000 -0.140000 -0.000000
v -3.187384 -0.140000 1.320258
v -2.439518 -0.140000 2.439518
v -1.320258 -0.140000 3.187384
v -0.000000 -0.140000 3.450000
v 1.320258 -0.140000 3.187384
v 2.439518 -0.140000 2.439518
v 3.187384 -0.140000 1.320258
v 3.450000 0.140000 -0.000000
v 3.187384 0.140000 -1.320258
v 2.439518 0.140000 -2.439518
v 1.320258 0.140000 -3.187384
v 0.000000 0.140000 -3.450000
v -1.320258 0.140000 -3.187384
v -2.439518 0.140000 -2.439518
v -3.187384 0.140000 -1.320258
v -3.450000 0.140000 -0.000000
v -3.187384 0.140000 1.320258
v -2.439518 0.140000 2.439518
v -1.320258 0.140000 3.187384
v -0.000000 0.140000 3.450000
v 1.320258 0.140000 3.187384
v 2.439518 0.140000 2.439518
v 3.187384 0.140000 1.320258
v 0.000000 -0.140000 -0.000000
v 0.000000 0.140000 -0.000000
f 1 2 18 17
f 33 2 1
f 34 17 18
f 2 3 19 18
f 33 3 2
f 34 18 19
f 3 4 20 19
f 33 4 3
f 34 19 20
f 4 5 21 20
f 33 5 4
f 34 20 21
f 5 6 22 21
f 33 6 5
f 34 21 22
f 6 7 23 22
f 33 7 6
f 34 22 23
f 7 8 24 23
f 33 8 7
f 34 23 24
f 8 9 25 24
f 33 9 8
f 34 24 25
f 9 10 26 25
f 33 10 9
f 34 25 26
f 10 11 27 26
f 33 11 10
f 34 26 27
f 11 12 28 27
f 33 12 11
f 34 27 28
f 12 13 29 28
f 33 13 12
f 34 28 29
f 13 14 30 29
f 33 14 13
f 34 29 30
f 14 15 31 30
f 33 15 14
f 34 30 31
f 15 16 32 31
f 33 16 15
f 34 31 32
f 16 1 17 32
f 33 1 16
f 34 32 17
