# Separate Unity mesh: Canopy_Top
mtllib ../LowPolyMerryGoRound.mtl
o Canopy_Top
s off
usemtl Gold
v 0.150000 -0.325000 -0.000000
v 0.121353 -0.325000 -0.088168
v 0.046353 -0.325000 -0.142658
v -0.046353 -0.325000 -0.142658
v -0.121353 -0.325000 -0.088168
v -0.150000 -0.325000 -0.000000
v -0.121353 -0.325000 0.088168
v -0.046353 -0.325000 0.142658
v 0.046353 -0.325000 0.142658
v 0.121353 -0.325000 0.088168
v 0.020000 0.325000 -0.000000
v 0.016180 0.325000 -0.011756
v 0.006180 0.325000 -0.019021
v -0.006180 0.325000 -0.019021
v -0.016180 0.325000 -0.011756
v -0.020000 0.325000 -0.000000
v -0.016180 0.325000 0.011756
v -0.006180 0.325000 0.019021
v 0.006180 0.325000 0.019021
v 0.016180 0.325000 0.011756
v 0.000000 -0.325000 -0.000000
v 0.000000 0.325000 -0.000000
f 1 2 12 11
f 21 2 1
f 22 11 12
f 2 3 13 12
f 21 3 2
f 22 12 13
f 3 4 14 13
f 21 4 3
f 22 13 14
f 4 5 15 14
f 21 5 4
f 22 14 15
f 5 6 16 15
f 21 6 5
f 22 15 16
f 6 7 17 16
f 21 7 6
f 22 16 17
f 7 8 18 17
f 21 8 7
f 22 17 18
f 8 9 19 18
f 21 9 8
f 22 18 19
f 9 10 20 19
f 21 10 9
f 22 19 20
f 10 1 11 20
f 21 1 10
f 22 20 11
