# Separate Unity mesh: Center_Column
mtllib ../LowPolyMerryGoRound.mtl
o Center_Column
s off
usemtl Paint_Cream
v 0.380000 -2.075000 -0.000000
v 0.329090 -2.075000 -0.190000
v 0.190000 -2.075000 -0.329090
v 0.000000 -2.075000 -0.380000
v -0.190000 -2.075000 -0.329090
v -0.329090 -2.075000 -0.190000
v -0.380000 -2.075000 -0.000000
v -0.329090 -2.075000 0.190000
v -0.190000 -2.075000 0.329090
v -0.000000 -2.075000 0.380000
v 0.190000 -2.075000 0.329090
v 0.329090 -2.075000 0.190000
v 0.380000 2.075000 -0.000000
v 0.329090 2.075000 -0.190000
v 0.190000 2.075000 -0.329090
v 0.000000 2.075000 -0.380000
v -0.190000 2.075000 -0.329090
v -0.329090 2.075000 -0.190000
v -0.380000 2.075000 -0.000000
v -0.329090 2.075000 0.190000
v -0.190000 2.075000 0.329090
v -0.000000 2.075000 0.380000
v 0.190000 2.075000 0.329090
v 0.329090 2.075000 0.190000
v 0.000000 -2.075000 -0.000000
v 0.000000 2.075000 -0.000000
f 1 2 14 13
f 25 2 1
f 26 13 14
f 2 3 15 14
f 25 3 2
f 26 14 15
f 3 4 16 15
f 25 4 3
f 26 15 16
f 4 5 17 16
f 25 5 4
f 26 16 17
f 5 6 18 17
f 25 6 5
f 26 17 18
f 6 7 19 18
f 25 7 6
f 26 18 19
f 7 8 20 19
f 25 8 7
f 26 19 20
f 8 9 21 20
f 25 9 8
f 26 20 21
f 9 10 22 21
f 25 10 9
f 26 21 22
f 10 11 23 22
f 25 11 10
f 26 22 23
f 11 12 24 23
f 25 12 11
f 26 23 24
f 12 1 13 24
f 25 1 12
f 26 24 13
