# Separate Unity mesh: Horse_Pole_07
mtllib ../LowPolyMerryGoRound.mtl
o Horse_Pole_07
s off
usemtl Gold
v 0.042772 -1.975000 -0.000000
v 0.025829 -1.975000 -0.035182
v -0.012242 -1.975000 -0.043872
v -0.042772 -1.975000 -0.019525
v -0.042772 -1.975000 0.019525
v -0.012242 -1.975000 0.043872
v 0.025829 -1.975000 0.035182
v 0.042772 1.975000 -0.000000
v 0.025829 1.975000 -0.035182
v -0.012242 1.975000 -0.043872
v -0.042772 1.975000 -0.019525
v -0.042772 1.975000 0.019525
v -0.012242 1.975000 0.043872
v 0.025829 1.975000 0.035182
v -0.002228 -1.975000 -0.000000
v -0.002228 1.975000 -0.000000
f 1 2 9 8
f 15 2 1
f 16 8 9
f 2 3 10 9
f 15 3 2
f 16 9 10
f 3 4 11 10
f 15 4 3
f 16 10 11
f 4 5 12 11
f 15 5 4
f 16 11 12
f 5 6 13 12
f 15 6 5
f 16 12 13
f 6 7 14 13
f 15 7 6
f 16 13 14
f 7 1 8 14
f 15 1 7
f 16 14 8
