# Separate Unity mesh: Horse_01
mtllib ../LowPolyMerryGoRound.mtl
o Horse_01
s off
usemtl Horse_White
v 0.000000 0.174420 0.145388
v 0.000000 0.074836 -0.293018
v -0.125000 0.074836 -0.164612
v -0.176777 0.074836 0.145388
v -0.125000 0.074836 0.455388
v 0.000000 0.074836 0.583794
v 0.125000 0.074836 0.455388
v 0.176777 0.074836 0.145388
v 0.125000 0.074836 -0.164612
v 0.000000 -0.165580 -0.474612
v -0.176777 -0.165580 -0.293018
v -0.250000 -0.165580 0.145388
v -0.176777 -0.165580 0.583794
v 0.000000 -0.165580 0.765388
v 0.176777 -0.165580 0.583794
v 0.250000 -0.165580 0.145388
v 0.176777 -0.165580 -0.293018
v 0.000000 -0.405997 -0.293018
v -0.125000 -0.405997 -0.164612
v -0.176777 -0.405997 0.145388
v -0.125000 -0.405997 0.455388
v 0.000000 -0.405997 0.583794
v 0.125000 -0.405997 0.455388
v 0.176777 -0.405997 0.145388
v 0.125000 -0.405997 -0.164612
v 0.000000 -0.505580 0.145388
v 0.190000 -0.005580 -0.204612
v 0.118463 -0.080997 -0.332592
v -0.042279 -0.099623 -0.364200
v -0.171184 -0.047434 -0.275636
v -0.171184 0.036273 -0.133589
v -0.042279 0.088463 -0.045024
v 0.118463 0.069836 -0.076632
v 0.190000 0.554420 -0.534612
v 0.118463 0.479003 -0.662592
v -0.042279 0.460377 -0.694200
v -0.171184 0.512566 -0.605636
v -0.171184 0.596273 -0.463589
v -0.042279 0.648463 -0.375024
v 0.118463 0.629836 -0.406632
v 0.000000 0.854420 -0.674612
v 0.000000 0.734420 -0.969061
v -0.135417 0.734420 -0.858198
v -0.168862 0.734420 -0.609091
v -0.075151 0.734420 -0.409323
v 0.075151 0.734420 -0.409323
v 0.168862 0.734420 -0.609091
v 0.135417 0.734420 -0.858198
v 0.000000 0.494420 -0.969061
v -0.135417 0.494420 -0.858198
v -0.168862 0.494420 -0.609091
v -0.075151 0.494420 -0.409323
v 0.075151 0.494420 -0.409323
v 0.168862 0.494420 -0.609091
v 0.135417 0.494420 -0.858198
v 0.000000 0.374420 -0.674612
v 0.000000 0.674420 -0.934612
v 0.000000 0.604420 -1.133798
v -0.108334 0.604420 -1.058803
v -0.135090 0.604420 -0.890289
v -0.060121 0.604420 -0.755152
v 0.060121 0.604420 -0.755152
v 0.135090 0.604420 -0.890289
v 0.108334 0.604420 -1.058803
v 0.000000 0.464420 -1.133798
v -0.108334 0.464420 -1.058803
v -0.135090 0.464420 -0.890289
v -0.060121 0.464420 -0.755152
v 0.060121 0.464420 -0.755152
v 0.135090 0.464420 -0.890289
v 0.108334 0.464420 -1.058803
v 0.000000 0.394420 -0.934612
v 0.140000 -0.334002 0.421287
v 0.204952 -0.339791 0.458337
v 0.204952 -0.351370 0.532438
v 0.140000 -0.357159 0.569489
v 0.075048 -0.351370 0.532438
v 0.075048 -0.339791 0.458337
v 0.140000 -0.974002 0.321287
v 0.204952 -0.979791 0.358337
v 0.204952 -0.991370 0.432438
v 0.140000 -0.997159 0.469489
v 0.075048 -0.991370 0.432438
v 0.075048 -0.979791 0.358337
v 0.140000 -0.334002 -0.268713
v 0.204952 -0.339791 -0.231663
v 0.204952 -0.351370 -0.157562
v 0.140000 -0.357159 -0.120511
v 0.075048 -0.351370 -0.157562
v 0.075048 -0.339791 -0.231663
v 0.140000 -0.974002 -0.368713
v 0.204952 -0.979791 -0.331663
v 0.204952 -0.991370 -0.257562
v 0.140000 -0.997159 -0.220511
v 0.075048 -0.991370 -0.257562
v 0.075048 -0.979791 -0.331663
v -0.140000 -0.334002 0.421287
v -0.075048 -0.339791 0.458337
v -0.075048 -0.351370 0.532438
v -0.140000 -0.357159 0.569489
v -0.204952 -0.351370 0.532438
v -0.204952 -0.339791 0.458337
v -0.140000 -0.974002 0.321287
v -0.075048 -0.979791 0.358337
v -0.075048 -0.991370 0.432438
v -0.140000 -0.997159 0.469489
v -0.204952 -0.991370 0.432438
v -0.204952 -0.979791 0.358337
v -0.140000 -0.334002 -0.268713
v -0.075048 -0.339791 -0.231663
v -0.075048 -0.351370 -0.157562
v -0.140000 -0.357159 -0.120511
v -0.204952 -0.351370 -0.157562
v -0.204952 -0.339791 -0.231663
v -0.140000 -0.974002 -0.368713
v -0.075048 -0.979791 -0.331663
v -0.075048 -0.991370 -0.257562
v -0.140000 -0.997159 -0.220511
v -0.204952 -0.991370 -0.257562
v -0.204952 -0.979791 -0.331663
v -0.075000 -0.115580 0.645388
v -0.037500 -0.167958 0.606978
v 0.037500 -0.167958 0.606978
v 0.075000 -0.115580 0.645388
v 0.037500 -0.063203 0.683798
v -0.037500 -0.063203 0.683798
v -0.075000 -0.445580 1.095388
v -0.037500 -0.497958 1.056978
v 0.037500 -0.497958 1.056978
v 0.075000 -0.445580 1.095388
v 0.037500 -0.393203 1.133798
v -0.037500 -0.393203 1.133798
v 0.100000 0.787159 -0.531108
v 0.152308 0.778356 -0.568078
v 0.132328 0.764113 -0.627898
v 0.067672 0.764113 -0.627898
v 0.047692 0.778356 -0.568078
v 0.100000 0.997159 -0.581108
v 0.152308 0.988356 -0.618078
v 0.132328 0.974113 -0.677898
v 0.067672 0.974113 -0.677898
v 0.047692 0.988356 -0.618078
v -0.100000 0.787159 -0.531108
v -0.047692 0.778356 -0.568078
v -0.067672 0.764113 -0.627898
v -0.132328 0.764113 -0.627898
v -0.152308 0.778356 -0.568078
v -0.100000 0.997159 -0.581108
v -0.047692 0.988356 -0.618078
v -0.067672 0.974113 -0.677898
v -0.132328 0.974113 -0.677898
v -0.152308 0.988356 -0.618078
f 1 2 3
f 1 3 4
f 1 4 5
f 1 5 6
f 1 6 7
f 1 7 8
f 1 8 9
f 1 9 2
f 2 10 11
f 2 11 3
f 3 11 12
f 3 12 4
f 4 12 13
f 4 13 5
f 5 13 14
f 5 14 6
f 6 14 15
f 6 15 7
f 7 15 16
f 7 16 8
f 8 16 17
f 8 17 9
f 9 17 10
f 9 10 2
f 10 18 19
f 10 19 11
f 11 19 20
f 11 20 12
f 12 20 21
f 12 21 13
f 13 21 22
f 13 22 14
f 14 22 23
f 14 23 15
f 15 23 24
f 15 24 16
f 16 24 25
f 16 25 17
f 17 25 18
f 17 18 10
f 26 19 18
f 26 20 19
f 26 21 20
f 26 22 21
f 26 23 22
f 26 24 23
f 26 25 24
f 26 18 25
f 27 28 35 34
f 28 29 36 35
f 29 30 37 36
f 30 31 38 37
f 31 32 39 38
f 32 33 40 39
f 33 27 34 40
f 41 42 43
f 41 43 44
f 41 44 45
f 41 45 46
f 41 46 47
f 41 47 48
f 41 48 42
f 42 49 50
f 42 50 43
f 43 50 51
f 43 51 44
f 44 51 52
f 44 52 45
f 45 52 53
f 45 53 46
f 46 53 54
f 46 54 47
f 47 54 55
f 47 55 48
f 48 55 49
f 48 49 42
f 56 50 49
f 56 51 50
f 56 52 51
f 56 53 52
f 56 54 53
f 56 55 54
f 56 49 55
f 57 58 59
f 57 59 60
f 57 60 61
f 57 61 62
f 57 62 63
f 57 63 64
f 57 64 58
f 58 65 66
f 58 66 59
f 59 66 67
f 59 67 60
f 60 67 68
f 60 68 61
f 61 68 69
f 61 69 62
f 62 69 70
f 62 70 63
f 63 70 71
f 63 71 64
f 64 71 65
f 64 65 58
f 72 66 65
f 72 67 66
f 72 68 67
f 72 69 68
f 72 70 69
f 72 71 70
f 72 65 71
f 73 74 80 79
f 74 75 81 80
f 75 76 82 81
f 76 77 83 82
f 77 78 84 83
f 78 73 79 84
f 85 86 92 91
f 86 87 93 92
f 87 88 94 93
f 88 89 95 94
f 89 90 96 95
f 90 85 91 96
f 97 98 104 103
f 98 99 105 104
f 99 100 106 105
f 100 101 107 106
f 101 102 108 107
f 102 97 103 108
f 109 110 116 115
f 110 111 117 116
f 111 112 118 117
f 112 113 119 118
f 113 114 120 119
f 114 109 115 120
f 121 122 128 127
f 122 123 129 128
f 123 124 130 129
f 124 125 131 130
f 125 126 132 131
f 126 121 127 132
f 133 134 139 138
f 134 135 140 139
f 135 136 141 140
f 136 137 142 141
f 137 133 138 142
f 143 144 149 148
f 144 145 150 149
f 145 146 151 150
f 146 147 152 151
f 147 143 148 152
