# Separate Unity mesh: Horse_06
mtllib ../LowPolyMerryGoRound.mtl
o Horse_06
s off
usemtl Horse_Tan
v -0.101333 0.174420 -0.101333
v 0.208667 0.074836 0.208667
v 0.206258 0.074836 0.029481
v 0.023667 0.074836 -0.226333
v -0.232148 0.074836 -0.408925
v -0.411333 0.074836 -0.411333
v -0.408925 0.074836 -0.232148
v -0.226333 0.074836 0.023667
v 0.029481 0.074836 0.206258
v 0.337073 -0.165580 0.337073
v 0.333667 -0.165580 0.083667
v 0.075443 -0.165580 -0.278110
v -0.286333 -0.165580 -0.536333
v -0.539740 -0.165580 -0.539740
v -0.536333 -0.165580 -0.286333
v -0.278110 -0.165580 0.075443
v 0.083667 -0.165580 0.333667
v 0.208667 -0.405997 0.208667
v 0.206258 -0.405997 0.029481
v 0.023667 -0.405997 -0.226333
v -0.232148 -0.405997 -0.408925
v -0.411333 -0.405997 -0.411333
v -0.408925 -0.405997 -0.232148
v -0.226333 -0.405997 0.023667
v 0.029481 -0.405997 0.206258
v -0.101333 -0.505580 -0.101333
v 0.011804 -0.005580 0.280504
v 0.152883 -0.080997 0.320415
v 0.288896 -0.099623 0.229104
v 0.317421 -0.047434 0.075330
v 0.216978 0.036273 -0.025113
v 0.063204 0.088463 0.003412
v -0.028107 0.069836 0.139425
v 0.245149 0.554420 0.513850
v 0.386229 0.479003 0.553761
v 0.522241 0.460377 0.462449
v 0.550766 0.512566 0.308675
v 0.450324 0.596273 0.208233
v 0.296549 0.648463 0.236758
v 0.205238 0.629836 0.372770
v 0.478494 0.854420 0.478494
v 0.686701 0.734420 0.686701
v 0.704063 0.734420 0.512555
v 0.551568 0.734420 0.312760
v 0.344046 0.734420 0.237767
v 0.237767 0.734420 0.344046
v 0.312760 0.734420 0.551568
v 0.512555 0.734420 0.704063
v 0.686701 0.494420 0.686701
v 0.704063 0.494420 0.512555
v 0.551568 0.494420 0.312760
v 0.344046 0.494420 0.237767
v 0.237767 0.494420 0.344046
v 0.312760 0.494420 0.551568
v 0.512555 0.494420 0.704063
v 0.478494 0.374420 0.478494
v 0.662342 0.674420 0.662342
v 0.803188 0.604420 0.803188
v 0.826761 0.604420 0.673554
v 0.726524 0.604420 0.535478
v 0.577956 0.604420 0.492933
v 0.492933 0.604420 0.577956
v 0.535478 0.604420 0.726524
v 0.673554 0.604420 0.826761
v 0.803188 0.464420 0.803188
v 0.826761 0.464420 0.673554
v 0.726524 0.464420 0.535478
v 0.577956 0.464420 0.492933
v 0.492933 0.464420 0.577956
v 0.535478 0.464420 0.726524
v 0.673554 0.464420 0.826761
v 0.662342 0.394420 0.662342
v -0.395418 -0.334002 -0.197428
v -0.467545 -0.339791 -0.177699
v -0.519942 -0.351370 -0.230096
v -0.500213 -0.357159 -0.302223
v -0.428086 -0.351370 -0.321952
v -0.375689 -0.339791 -0.269555
v -0.324708 -0.974002 -0.126718
v -0.396834 -0.979791 -0.106989
v -0.449232 -0.991370 -0.159386
v -0.429502 -0.997159 -0.231512
v -0.357376 -0.991370 -0.251242
v -0.304978 -0.979791 -0.198844
v 0.092485 -0.334002 0.290475
v 0.020359 -0.339791 0.310204
v -0.032039 -0.351370 0.257807
v -0.012309 -0.357159 0.185681
v 0.059817 -0.351370 0.165951
v 0.112215 -0.339791 0.218349
v 0.163196 -0.974002 0.361186
v 0.091069 -0.979791 0.380915
v 0.038672 -0.991370 0.328518
v 0.058401 -0.997159 0.256391
v 0.130528 -0.991370 0.236662
v 0.182925 -0.979791 0.289059
v -0.197428 -0.334002 -0.395418
v -0.269555 -0.339791 -0.375689
v -0.321952 -0.351370 -0.428086
v -0.302223 -0.357159 -0.500213
v -0.230096 -0.351370 -0.519942
v -0.177699 -0.339791 -0.467545
v -0.126718 -0.974002 -0.324708
v -0.198844 -0.979791 -0.304978
v -0.251242 -0.991370 -0.357376
v -0.231512 -0.997159 -0.429502
v -0.159386 -0.991370 -0.449232
v -0.106989 -0.979791 -0.396834
v 0.290475 -0.334002 0.092485
v 0.218349 -0.339791 0.112215
v 0.165951 -0.351370 0.059817
v 0.185681 -0.357159 -0.012309
v 0.257807 -0.351370 -0.032039
v 0.310204 -0.339791 0.020359
v 0.361186 -0.974002 0.163196
v 0.289059 -0.979791 0.182925
v 0.236662 -0.991370 0.130528
v 0.256391 -0.997159 0.058401
v 0.328518 -0.991370 0.038672
v 0.380915 -0.979791 0.091069
v -0.401854 -0.115580 -0.507920
v -0.401210 -0.167958 -0.454243
v -0.454243 -0.167958 -0.401210
v -0.507920 -0.115580 -0.401854
v -0.508563 -0.063203 -0.455530
v -0.455530 -0.063203 -0.508563
v -0.720052 -0.445580 -0.826118
v -0.719408 -0.497958 -0.772441
v -0.772441 -0.497958 -0.719408
v -0.826118 -0.445580 -0.720052
v -0.826761 -0.393203 -0.773728
v -0.773728 -0.393203 -0.826761
v 0.306311 0.787159 0.447732
v 0.295465 0.778356 0.510862
v 0.351892 0.764113 0.539033
v 0.397611 0.764113 0.493314
v 0.369440 0.778356 0.436887
v 0.341666 0.997159 0.483087
v 0.330821 0.988356 0.546217
v 0.387248 0.974113 0.574388
v 0.432967 0.974113 0.528669
v 0.404796 0.988356 0.472242
v 0.447732 0.787159 0.306311
v 0.436887 0.778356 0.369440
v 0.493314 0.764113 0.397611
v 0.539033 0.764113 0.351892
v 0.510862 0.778356 0.295465
v 0.483087 0.997159 0.341666
v 0.472242 0.988356 0.404796
v 0.528669 0.974113 0.432967
v 0.574388 0.974113 0.387248
v 0.546217 0.988356 0.330821
f 1 2 3
f 1 3 4
f 1 4 5
f 1 5 6
f 1 6 7
f 1 7 8
f 1 8 9
f 1 9 2
f 2 10 11
f 2 11 3
f 3 11 12
f 3 12 4
f 4 12 13
f 4 13 5
f 5 13 14
f 5 14 6
f 6 14 15
f 6 15 7
f 7 15 16
f 7 16 8
f 8 16 17
f 8 17 9
f 9 17 10
f 9 10 2
f 10 18 19
f 10 19 11
f 11 19 20
f 11 20 12
f 12 20 21
f 12 21 13
f 13 21 22
f 13 22 14
f 14 22 23
f 14 23 15
f 15 23 24
f 15 24 16
f 16 24 25
f 16 25 17
f 17 25 18
f 17 18 10
f 26 19 18
f 26 20 19
f 26 21 20
f 26 22 21
f 26 23 22
f 26 24 23
f 26 25 24
f 26 18 25
f 27 28 35 34
f 28 29 36 35
f 29 30 37 36
f 30 31 38 37
f 31 32 39 38
f 32 33 40 39
f 33 27 34 40
f 41 42 43
f 41 43 44
f 41 44 45
f 41 45 46
f 41 46 47
f 41 47 48
f 41 48 42
f 42 49 50
f 42 50 43
f 43 50 51
f 43 51 44
f 44 51 52
f 44 52 45
f 45 52 53
f 45 53 46
f 46 53 54
f 46 54 47
f 47 54 55
f 47 55 48
f 48 55 49
f 48 49 42
f 56 50 49
f 56 51 50
f 56 52 51
f 56 53 52
f 56 54 53
f 56 55 54
f 56 49 55
f 57 58 59
f 57 59 60
f 57 60 61
f 57 61 62
f 57 62 63
f 57 63 64
f 57 64 58
f 58 65 66
f 58 66 59
f 59 66 67
f 59 67 60
f 60 67 68
f 60 68 61
f 61 68 69
f 61 69 62
f 62 69 70
f 62 70 63
f 63 70 71
f 63 71 64
f 64 71 65
f 64 65 58
f 72 66 65
f 72 67 66
f 72 68 67
f 72 69 68
f 72 70 69
f 72 71 70
f 72 65 71
f 73 74 80 79
f 74 75 81 80
f 75 76 82 81
f 76 77 83 82
f 77 78 84 83
f 78 73 79 84
f 85 86 92 91
f 86 87 93 92
f 87 88 94 93
f 88 89 95 94
f 89 90 96 95
f 90 85 91 96
f 97 98 104 103
f 98 99 105 104
f 99 100 106 105
f 100 101 107 106
f 101 102 108 107
f 102 97 103 108
f 109 110 116 115
f 110 111 117 116
f 111 112 118 117
f 112 113 119 118
f 113 114 120 119
f 114 109 115 120
f 121 122 128 127
f 122 123 129 128
f 123 124 130 129
f 124 125 131 130
f 125 126 132 131
f 126 121 127 132
f 133 134 139 138
f 134 135 140 139
f 135 136 141 140
f 136 137 142 141
f 137 133 138 142
f 143 144 149 148
f 144 145 150 149
f 145 146 151 150
f 146 147 152 151
f 147 143 148 152
