# Separate Unity mesh: Light_08
mtllib ../LowPolyMerryGoRound.mtl
o Light_08
s off
usemtl Lights
v 0.000000 0.110000 -0.000000
v 0.095263 0.055000 -0.000000
v 0.047631 0.055000 -0.082500
v -0.047631 0.055000 -0.082500
v -0.095263 0.055000 -0.000000
v -0.047631 0.055000 0.082500
v 0.047631 0.055000 0.082500
v 0.095263 -0.055000 -0.000000
v 0.047631 -0.055000 -0.082500
v -0.047631 -0.055000 -0.082500
v -0.095263 -0.055000 -0.000000
v -0.047631 -0.055000 0.082500
v 0.047631 -0.055000 0.082500
v 0.000000 -0.110000 -0.000000
f 1 2 3
f 1 3 4
f 1 4 5
f 1 5 6
f 1 6 7
f 1 7 2
f 2 8 9
f 2 9 3
f 3 9 10
f 3 10 4
f 4 10 11
f 4 11 5
f 5 11 12
f 5 12 6
f 6 12 13
f 6 13 7
f 7 13 8
f 7 8 2
f 14 9 8
f 14 10 9
f 14 11 10
f 14 12 11
f 14 13 12
f 14 8 13
