# OBJ generated by ONSHAPE BY PTC INC, 1.220 Units = meters
mtllib paddle.mtl
g Part 1
v -0.0485696 0.00575 -0.0255 
v 0.0521153 0.00575 -0.0255 
v 0.0521153 0.004 -0.0255 
v -0.0485696 0.004 -0.0255 
v -0.0687239 0.00575 0.0958746 
v -0.0667353 0.00575 0.0989969 
v -0.0643523 0.00575 0.102022 
v -0.0616169 0.00575 0.104861 
v -0.0705482 0.00575 0.0922698 
v -0.0722542 0.00575 0.0878909 
v 0.0676949 0.00575 0.102253 
v 0.0700988 0.00575 0.0992518 
v -0.0738001 0.00575 0.0824014 
v 0.0649269 0.00575 0.105082 
v -0.0584225 0.00575 0.107591 
v -0.0546299 0.00575 0.110259 
v 0.0721095 0.00575 0.0961527 
v 0.0739423 0.00575 0.0926044 
v -0.0493746 0.00575 0.113237 
v -0.0749625 0.00575 0.0760837 
v 0.0756601 0.00575 0.0883006 
v 0.0616908 0.00575 0.107805 
v -0.0435545 0.00575 0.115858 
v -0.0756651 0.00575 0.0689668 
v 0.0772226 0.00575 0.0829232 
v -0.0289388 0.00575 0.12053 
v -0.0527482 0.00575 -0.0201659 
v 0.0603334 0.00575 -0.013864 
v 0.0562939 0.00575 -0.0201659 
v 0.0578428 0.00575 0.110469 
v -0.0368015 0.00575 0.118283 
v -0.0758437 0.00575 0.0603906 
v -0.0567878 0.00575 -0.013864 
v 0.0640825 0.00575 -0.00670592 
v 0.0789243 0.00575 0.0725875 
v 0.0793734 0.00575 0.0650544 
v 0.0531659 0.00575 0.113113 
v 0.0384343 0.00575 0.118878 
v 0.0454395 0.00575 0.116507 
v -0.075414 0.00575 0.0515794 
v -0.0605368 0.00575 -0.00670592 
v 0.0675945 0.00575 0.00149321 
v 0.0792782 0.00575 0.0566997 
v 0.0785 0.00575 0.0761416 
v 0.0302426 0.00575 0.121087 
v -0.00248657 0.00575 0.125611 
v 0.00177283 0.00575 0.125793 
v -0.0640489 0.00575 0.00149321 
v 0.0708861 0.00575 0.0109151 
v 0.0516949 0.00575 0.11384 
v -0.00671501 0.00575 0.125067 
v -0.0743637 0.00575 0.04204 
v -0.0673404 0.00575 0.0109151 
v 0.0739132 0.00575 0.0216349 
v 0.00603224 0.00575 0.125611 
v -0.0726722 0.00575 0.0319498 
v -0.0703675 0.00575 0.0216349 
v 0.0762179 0.00575 0.0319498 
v 0.0186309 0.00575 0.12356 
v -0.019673 0.00575 0.122651 
v 0.0779094 0.00575 0.04204 
v 0.0785 0.00575 0.0467639 
v 0.0102607 0.00575 0.125067 
v 0.0186309 -0.00575 0.12356 
v 0.0384343 -0.00575 0.118878 
v 0.0454395 -0.00575 0.116507 
v 0.0516949 -0.00575 0.11384 
v 0.0531659 -0.00575 0.113113 
v 0.0578428 -0.00575 0.110469 
v 0.0616908 -0.00575 0.107805 
v 0.0676949 -0.00575 0.102253 
v 0.0700988 -0.00575 0.0992518 
v 0.0721095 -0.00575 0.0961527 
v 0.0739423 -0.00575 0.0926044 
v 0.0756601 -0.00575 0.0883006 
v 0.0772226 -0.00575 0.0829232 
v 0.0785 -0.00575 0.0761416 
v 0.0649269 -0.00575 0.105082 
v 0.0302426 -0.00575 0.121087 
v 0.0102607 -0.00575 0.125067 
v -0.00671501 -0.00575 0.125067 
v -0.00248657 -0.00575 0.125611 
v 0.00177283 -0.00575 0.125793 
v 0.00603224 -0.00575 0.125611 
v 0.0789243 -0.00575 0.0725875 
v 0.0793734 -0.00575 0.0650544 
v 0.0792782 -0.00575 0.0566997 
v 0.0785 -0.00575 0.0467639 
v -0.0687239 -0.00575 0.0958746 
v -0.0616169 -0.00575 0.104861 
v -0.0643523 -0.00575 0.102022 
v -0.0667353 -0.00575 0.0989969 
v -0.0705482 -0.00575 0.0922698 
v -0.0722542 -0.00575 0.0878909 
v -0.0485696 -0.00575 -0.0255 
v -0.0738001 -0.00575 0.0824014 
v -0.0584225 -0.00575 0.107591 
v -0.0493746 -0.00575 0.113237 
v -0.0546299 -0.00575 0.110259 
v -0.0749625 -0.00575 0.0760837 
v -0.0435545 -0.00575 0.115858 
v -0.0289388 -0.00575 0.12053 
v -0.0567878 -0.00575 -0.013864 
v -0.0527482 -0.00575 -0.0201659 
v -0.0756651 -0.00575 0.0689668 
v -0.0368015 -0.00575 0.118283 
v -0.0605368 -0.00575 -0.00670592 
v 0.0521153 -0.00575 -0.0255 
v 0.0562939 -0.00575 -0.0201659 
v -0.0640489 -0.00575 0.00149321 
v -0.0758437 -0.00575 0.0603906 
v 0.0603334 -0.00575 -0.013864 
v -0.0673404 -0.00575 0.0109151 
v -0.075414 -0.00575 0.0515794 
v 0.0640825 -0.00575 -0.00670592 
v -0.0703675 -0.00575 0.0216349 
v 0.0675945 -0.00575 0.00149321 
v -0.0726722 -0.00575 0.0319498 
v -0.0743637 -0.00575 0.04204 
v 0.0708861 -0.00575 0.0109151 
v 0.0739132 -0.00575 0.0216349 
v -0.019673 -0.00575 0.122651 
v 0.0779094 -0.00575 0.04204 
v 0.0762179 -0.00575 0.0319498 
v 0.0521153 -0.004 -0.0255 
v -0.0485696 -0.004 -0.0255 
v -0.021982 -0.004 -0.0484631 
v -0.021982 0.004 -0.0484631 
v -0.0132272 0.004 -0.0557204 
v -0.0391253 -0.004 -0.0333529 
v -0.0391253 0.004 -0.0333529 
v -0.0132272 -0.004 -0.0557204 
v -0.0132272 0.004 -0.1265 
v -0.0132272 -0.004 -0.1265 
v 0.0167728 -0.004 -0.0557204 
v 0.0255276 -0.004 -0.0484631 
v 0.0426709 -0.004 -0.0333529 
v 0.0167728 -0.004 -0.1265 
v 0.0426709 0.004 -0.0333529 
v 0.0255276 0.004 -0.0484631 
v 0.0167728 0.004 -0.0557204 
v 0.0167728 0.004 -0.1265 
vn 0 0 -1 
vn 0 1 0 
vn 0.186917 0 0.982376 
vn 0.169757 0 0.985486 
vn 0.234587 0 0.972095 
vn 0.289317 0 0.957233 
vn 0.354783 0 0.934949 
vn 0.432463 0 0.901652 
vn 0.453931 0 0.891037 
vn 0.531642 0 0.846969 
vn 0.607515 0 0.794308 
vn 0.680179 0 0.733046 
vn 0.748374 0 0.663277 
vn 0.811104 0 0.584902 
vn 0.864598 0 0.502463 
vn 0.909219 0 0.416318 
vn 0.945118 0 0.326729 
vn 0.972283 0 0.233806 
vn 0.9902 0 0.139656 
vn 0.680179 0 0.733046 
vn 0.234587 0 0.972095 
vn 0.169757 0 0.985486 
vn -0.169757 0 0.985486 
vn -0.0851881 0 0.996365 
vn -2.44929e-16 0 1 
vn 0.0851881 0 0.996365 
vn 0.169757 0 0.985486 
vn 0.995171 0 0.0981566 
vn 0.9902 0 0.139656 
vn 0.999725 0 0.0234326 
vn 0.999032 0 -0.0439871 
vn 0.993928 0 -0.110037 
vn 0.9902 0 0.139656 
vn 0 -1 0 
vn 0.990468 0 -0.137741 
vn 0.993928 0 -0.110037 
vn 0.981417 0 -0.191888 
vn 0.969797 0 -0.243912 
vn 0.953775 0 -0.300522 
vn 0.932478 0 -0.361226 
vn 0.903625 0 -0.428325 
vn 0.865251 0 -0.501338 
vn 0.815333 0 -0.578992 
vn 0.75634 0 -0.654178 
vn 0.993928 0 -0.110037 
vn -0.815333 0 -0.578992 
vn -0.75634 0 -0.654178 
vn -0.865251 0 -0.501338 
vn -0.903625 0 -0.428325 
vn -0.932478 0 -0.361226 
vn -0.953775 0 -0.300522 
vn -0.969797 0 -0.243912 
vn -0.981417 0 -0.191888 
vn -0.990468 0 -0.137741 
vn -0.99683 0 -0.0795572 
vn -0.999875 0 -0.0158404 
vn -0.998183 0 0.0602531 
vn -0.990301 0 0.138942 
vn -0.974187 0 0.225742 
vn -0.947768 0 0.318961 
vn -0.912626 0 0.408796 
vn -0.868736 0 0.495275 
vn -0.815945 0 0.57813 
vn -0.753566 0 0.657373 
vn -0.685779 0 0.727809 
vn -0.613426 0 0.789752 
vn -0.53776 0 0.843098 
vn -0.450252 0 0.892901 
vn -0.373426 0 0.92766 
vn -0.305263 0 0.952268 
vn -0.247577 0 0.968868 
vn -0.20214 0 0.979357 
vn -0.169757 0 0.985486 
vn -0.75634 0 -0.654178 
vn 0 0 -1 
vn -0.652733 0 -0.757588 
vn -0.620808 0 -0.783963 
vn -0.654517 0 -0.756047 
vn -1 0 0 
vn 0 -1 0 
vn 0 1 0 
vn 0 0 -1 
vn 1 0 0 
vn 0.654517 0 -0.756047 
vn 0.620808 0 -0.783963 
vn 0.652733 0 -0.757588 
usemtl 0.615686_0.811765_0.929412_0.000000_0.000000
o mesh0
f 1//1 2//1 3//1 
f 3//1 4//1 1//1 
o mesh1
f 5//2 6//2 7//2 
f 8//2 9//2 5//2 
f 8//2 10//2 9//2 
f 1//2 11//2 12//2 
f 8//2 13//2 10//2 
f 1//2 14//2 11//2 
f 13//2 15//2 16//2 
f 7//2 8//2 5//2 
f 12//2 17//2 1//2 
f 8//2 15//2 13//2 
f 17//2 18//2 1//2 
f 19//2 20//2 13//2 
f 18//2 21//2 1//2 
f 16//2 19//2 13//2 
f 1//2 22//2 14//2 
f 23//2 24//2 20//2 
f 21//2 25//2 1//2 
f 19//2 23//2 20//2 
f 26//2 1//2 27//2 
f 1//2 28//2 29//2 
f 1//2 30//2 22//2 
f 31//2 32//2 24//2 
f 27//2 33//2 26//2 
f 1//2 34//2 28//2 
f 1//2 35//2 36//2 
f 1//2 37//2 30//2 
f 1//2 38//2 39//2 
f 31//2 40//2 32//2 
f 33//2 41//2 26//2 
f 1//2 42//2 34//2 
f 36//2 43//2 1//2 
f 25//2 44//2 1//2 
f 1//2 45//2 38//2 
f 1//2 46//2 47//2 
f 23//2 31//2 24//2 
f 41//2 48//2 26//2 
f 1//2 49//2 42//2 
f 44//2 35//2 1//2 
f 39//2 50//2 1//2 
f 1//2 51//2 46//2 
f 26//2 52//2 40//2 
f 48//2 53//2 26//2 
f 1//2 54//2 49//2 
f 50//2 37//2 1//2 
f 47//2 55//2 1//2 
f 26//2 56//2 52//2 
f 53//2 57//2 26//2 
f 1//2 58//2 54//2 
f 1//2 59//2 45//2 
f 1//2 60//2 51//2 
f 57//2 56//2 26//2 
f 1//2 61//2 58//2 
f 43//2 62//2 1//2 
f 55//2 63//2 1//2 
f 31//2 26//2 40//2 
f 62//2 61//2 1//2 
f 26//2 60//2 1//2 
f 63//2 59//2 1//2 
f 29//2 2//2 1//2 
o mesh2
f 64//3 59//3 63//4 
f 45//5 59//3 64//3 
f 65//6 38//6 45//5 
f 66//7 39//7 38//6 
f 67//8 50//8 39//7 
f 68//9 37//9 50//8 
f 69//10 30//10 37//9 
f 70//11 22//11 30//10 
f 14//12 22//11 70//11 
f 71//13 11//13 14//12 
f 72//14 12//14 11//13 
f 73//15 17//15 12//14 
f 74//16 18//16 17//15 
f 75//17 21//17 18//16 
f 76//18 25//18 21//17 
f 44//19 25//18 76//18 
f 76//18 77//19 44//19 
f 21//17 75//17 76//18 
f 18//16 74//16 75//17 
f 17//15 73//15 74//16 
f 12//14 72//14 73//15 
f 11//13 71//13 72//14 
f 14//12 78//20 71//13 
f 70//11 78//20 14//12 
f 30//10 69//10 70//11 
f 37//9 68//9 69//10 
f 50//8 67//8 68//9 
f 39//7 66//7 67//8 
f 38//6 65//6 66//7 
f 45//5 79//21 65//6 
f 64//3 79//21 45//5 
f 63//4 80//22 64//3 
o mesh3
f 51//23 81//23 82//24 
f 46//24 82//24 83//25 
f 47//25 83//25 84//26 
f 55//26 84//26 80//27 
f 80//27 63//27 55//26 
f 84//26 55//26 47//25 
f 83//25 47//25 46//24 
f 82//24 46//24 51//23 
o mesh4
f 85//28 35//28 44//29 
f 86//30 36//30 35//28 
f 87//31 43//31 36//30 
f 88//32 62//32 43//31 
f 43//31 87//31 88//32 
f 36//30 86//30 87//31 
f 35//28 85//28 86//30 
f 44//29 77//33 85//28 
o mesh5
f 89//34 90//34 91//34 
f 91//34 92//34 89//34 
f 89//34 93//34 90//34 
f 93//34 94//34 90//34 
f 95//34 73//34 72//34 
f 96//34 97//34 90//34 
f 96//34 98//34 99//34 
f 72//34 71//34 95//34 
f 99//34 97//34 96//34 
f 95//34 74//34 73//34 
f 94//34 96//34 90//34 
f 95//34 75//34 74//34 
f 100//34 101//34 98//34 
f 95//34 76//34 75//34 
f 96//34 100//34 98//34 
f 71//34 78//34 95//34 
f 102//34 103//34 104//34 
f 105//34 106//34 101//34 
f 95//34 77//34 76//34 
f 102//34 107//34 103//34 
f 100//34 105//34 101//34 
f 78//34 70//34 95//34 
f 95//34 108//34 109//34 
f 102//34 110//34 107//34 
f 105//34 111//34 106//34 
f 95//34 67//34 66//34 
f 70//34 69//34 95//34 
f 95//34 87//34 86//34 
f 109//34 112//34 95//34 
f 102//34 113//34 110//34 
f 114//34 102//34 106//34 
f 95//34 84//34 83//34 
f 66//34 65//34 95//34 
f 95//34 85//34 77//34 
f 95//34 88//34 87//34 
f 112//34 115//34 95//34 
f 102//34 116//34 113//34 
f 111//34 114//34 106//34 
f 95//34 80//34 84//34 
f 95//34 68//34 67//34 
f 86//34 85//34 95//34 
f 115//34 117//34 95//34 
f 102//34 118//34 116//34 
f 114//34 119//34 102//34 
f 83//34 82//34 95//34 
f 69//34 68//34 95//34 
f 117//34 120//34 95//34 
f 119//34 118//34 102//34 
f 82//34 81//34 95//34 
f 65//34 79//34 95//34 
f 120//34 121//34 95//34 
f 95//34 122//34 102//34 
f 95//34 64//34 80//34 
f 95//34 123//34 88//34 
f 121//34 124//34 95//34 
f 81//34 122//34 95//34 
f 124//34 123//34 95//34 
f 79//34 64//34 95//34 
f 104//34 95//34 102//34 
o mesh6
f 123//35 61//35 62//36 
f 124//37 58//37 61//35 
f 121//38 54//38 58//37 
f 120//39 49//39 54//38 
f 117//40 42//40 49//39 
f 115//41 34//41 42//40 
f 112//42 28//42 34//41 
f 109//43 29//43 28//42 
f 29//43 109//43 125//44 
f 125//44 3//44 29//43 
f 109//43 108//44 125//44 
f 3//44 2//44 29//43 
f 28//42 112//42 109//43 
f 34//41 115//41 112//42 
f 42//40 117//40 115//41 
f 49//39 120//39 117//40 
f 54//38 121//38 120//39 
f 58//37 124//37 121//38 
f 61//35 123//35 124//37 
f 62//36 88//45 123//35 
o mesh7
f 104//46 27//46 4//47 
f 4//47 126//47 104//46 
f 27//46 1//47 4//47 
f 103//48 33//48 27//46 
f 107//49 41//49 33//48 
f 110//50 48//50 41//49 
f 113//51 53//51 48//50 
f 116//52 57//52 53//51 
f 118//53 56//53 57//52 
f 119//54 52//54 56//53 
f 114//55 40//55 52//54 
f 111//56 32//56 40//55 
f 105//57 24//57 32//56 
f 100//58 20//58 24//57 
f 96//59 13//59 20//58 
f 94//60 10//60 13//59 
f 93//61 9//61 10//60 
f 89//62 5//62 9//61 
f 92//63 6//63 5//62 
f 91//64 7//64 6//63 
f 90//65 8//65 7//64 
f 97//66 15//66 8//65 
f 99//67 16//67 15//66 
f 98//68 19//68 16//67 
f 101//69 23//69 19//68 
f 106//70 31//70 23//69 
f 102//71 26//71 31//70 
f 122//72 60//72 26//71 
f 81//73 51//73 60//72 
f 60//72 122//72 81//73 
f 26//71 102//71 122//72 
f 31//70 106//70 102//71 
f 23//69 101//69 106//70 
f 19//68 98//68 101//69 
f 16//67 99//67 98//68 
f 15//66 97//66 99//67 
f 8//65 90//65 97//66 
f 7//64 91//64 90//65 
f 6//63 92//63 91//64 
f 5//62 89//62 92//63 
f 9//61 93//61 89//62 
f 10//60 94//60 93//61 
f 13//59 96//59 94//60 
f 20//58 100//58 96//59 
f 24//57 105//57 100//58 
f 32//56 111//56 105//57 
f 40//55 114//55 111//56 
f 52//54 119//54 114//55 
f 56//53 118//53 119//54 
f 57//52 116//52 118//53 
f 53//51 113//51 116//52 
f 48//50 110//50 113//51 
f 41//49 107//49 110//50 
f 33//48 103//48 107//49 
f 27//46 104//46 103//48 
f 126//47 95//74 104//46 
o mesh8
f 95//75 126//75 125//75 
f 125//75 108//75 95//75 
o mesh9
f 127//76 128//76 129//77 
f 130//78 131//78 128//76 
f 126//77 4//77 131//78 
f 131//78 130//78 126//77 
f 128//76 127//76 130//78 
f 129//77 132//77 127//76 
o mesh10
f 132//79 129//79 133//79 
f 133//79 134//79 132//79 
o mesh11
f 132//80 135//80 136//80 
f 136//80 137//80 132//80 
f 134//80 138//80 135//80 
f 125//80 130//80 127//80 
f 135//80 132//80 134//80 
f 125//80 126//80 130//80 
f 127//80 132//80 125//80 
f 137//80 125//80 132//80 
o mesh12
f 129//81 139//81 140//81 
f 3//81 129//81 128//81 
f 141//81 142//81 133//81 
f 129//81 3//81 139//81 
f 128//81 131//81 3//81 
f 140//81 141//81 129//81 
f 133//81 129//81 141//81 
f 131//81 4//81 3//81 
o mesh13
f 134//82 133//82 142//82 
f 142//82 138//82 134//82 
o mesh14
f 138//83 142//83 141//83 
f 141//83 135//83 138//83 
o mesh15
f 137//84 139//84 3//85 
f 136//86 140//86 139//84 
f 135//85 141//85 140//86 
f 140//86 136//86 135//85 
f 139//84 137//84 136//86 
f 3//85 125//85 137//84 
