# Low-poly merry-go-round; Unity-ready Y-up coordinates
mtllib LowPolyMerryGoRound.mtl
s off
o Base_Foot
usemtl Paint_Dark
v 3.450000 0.000000 -0.000000
v 3.187384 0.000000 -1.320258
v 2.439518 0.000000 -2.439518
v 1.320258 0.000000 -3.187384
v 0.000000 0.000000 -3.450000
v -1.320258 0.000000 -3.187384
v -2.439518 0.000000 -2.439518
v -3.187384 0.000000 -1.320258
v -3.450000 0.000000 -0.000000
v -3.187384 0.000000 1.320258
v -2.439518 0.000000 2.439518
v -1.320258 0.000000 3.187384
v -0.000000 0.000000 3.450000
v 1.320258 0.000000 3.187384
v 2.439518 0.000000 2.439518
v 3.187384 0.000000 1.320258
v 3.450000 0.280000 -0.000000
v 3.187384 0.280000 -1.320258
v 2.439518 0.280000 -2.439518
v 1.320258 0.280000 -3.187384
v 0.000000 0.280000 -3.450000
v -1.320258 0.280000 -3.187384
v -2.439518 0.280000 -2.439518
v -3.187384 0.280000 -1.320258
v -3.450000 0.280000 -0.000000
v -3.187384 0.280000 1.320258
v -2.439518 0.280000 2.439518
v -1.320258 0.280000 3.187384
v -0.000000 0.280000 3.450000
v 1.320258 0.280000 3.187384
v 2.439518 0.280000 2.439518
v 3.187384 0.280000 1.320258
v 0.000000 0.000000 0.000000
v 0.000000 0.280000 0.000000
f 1 2 18 17
f 33 2 1
f 34 17 18
f 2 3 19 18
f 33 3 2
f 34 18 19
f 3 4 20 19
f 33 4 3
f 34 19 20
f 4 5 21 20
f 33 5 4
f 34 20 21
f 5 6 22 21
f 33 6 5
f 34 21 22
f 6 7 23 22
f 33 7 6
f 34 22 23
f 7 8 24 23
f 33 8 7
f 34 23 24
f 8 9 25 24
f 33 9 8
f 34 24 25
f 9 10 26 25
f 33 10 9
f 34 25 26
f 10 11 27 26
f 33 11 10
f 34 26 27
f 11 12 28 27
f 33 12 11
f 34 27 28
f 12 13 29 28
f 33 13 12
f 34 28 29
f 13 14 30 29
f 33 14 13
f 34 29 30
f 14 15 31 30
f 33 15 14
f 34 30 31
f 15 16 32 31
f 33 16 15
f 34 31 32
f 16 1 17 32
f 33 1 16
f 34 32 17
o Platform
usemtl Paint_Red
v 3.250000 0.280000 -0.000000
v 3.002608 0.280000 -1.243721
v 2.298097 0.280000 -2.298097
v 1.243721 0.280000 -3.002608
v 0.000000 0.280000 -3.250000
v -1.243721 0.280000 -3.002608
v -2.298097 0.280000 -2.298097
v -3.002608 0.280000 -1.243721
v -3.250000 0.280000 -0.000000
v -3.002608 0.280000 1.243721
v -2.298097 0.280000 2.298097
v -1.243721 0.280000 3.002608
v -0.000000 0.280000 3.250000
v 1.243721 0.280000 3.002608
v 2.298097 0.280000 2.298097
v 3.002608 0.280000 1.243721
v 3.250000 0.600000 -0.000000
v 3.002608 0.600000 -1.243721
v 2.298097 0.600000 -2.298097
v 1.243721 0.600000 -3.002608
v 0.000000 0.600000 -3.250000
v -1.243721 0.600000 -3.002608
v -2.298097 0.600000 -2.298097
v -3.002608 0.600000 -1.243721
v -3.250000 0.600000 -0.000000
v -3.002608 0.600000 1.243721
v -2.298097 0.600000 2.298097
v -1.243721 0.600000 3.002608
v -0.000000 0.600000 3.250000
v 1.243721 0.600000 3.002608
v 2.298097 0.600000 2.298097
v 3.002608 0.600000 1.243721
v 0.000000 0.280000 0.000000
v 0.000000 0.600000 0.000000
f 35 36 52 51
f 67 36 35
f 68 51 52
f 36 37 53 52
f 67 37 36
f 68 52 53
f 37 38 54 53
f 67 38 37
f 68 53 54
f 38 39 55 54
f 67 39 38
f 68 54 55
f 39 40 56 55
f 67 40 39
f 68 55 56
f 40 41 57 56
f 67 41 40
f 68 56 57
f 41 42 58 57
f 67 42 41
f 68 57 58
f 42 43 59 58
f 67 43 42
f 68 58 59
f 43 44 60 59
f 67 44 43
f 68 59 60
f 44 45 61 60
f 67 45 44
f 68 60 61
f 45 46 62 61
f 67 46 45
f 68 61 62
f 46 47 63 62
f 67 47 46
f 68 62 63
f 47 48 64 63
f 67 48 47
f 68 63 64
f 48 49 65 64
f 67 49 48
f 68 64 65
f 49 50 66 65
f 67 50 49
f 68 65 66
f 50 35 51 66
f 67 35 50
f 68 66 51
o Platform_Trim
usemtl Gold
v 3.380000 0.510000 -0.000000
v 3.122713 0.510000 -1.293470
v 2.390021 0.510000 -2.390021
v 1.293470 0.510000 -3.122713
v 0.000000 0.510000 -3.380000
v -1.293470 0.510000 -3.122713
v -2.390021 0.510000 -2.390021
v -3.122713 0.510000 -1.293470
v -3.380000 0.510000 -0.000000
v -3.122713 0.510000 1.293470
v -2.390021 0.510000 2.390021
v -1.293470 0.510000 3.122713
v -0.000000 0.510000 3.380000
v 1.293470 0.510000 3.122713
v 2.390021 0.510000 2.390021
v 3.122713 0.510000 1.293470
v 3.380000 0.630000 -0.000000
v 3.122713 0.630000 -1.293470
v 2.390021 0.630000 -2.390021
v 1.293470 0.630000 -3.122713
v 0.000000 0.630000 -3.380000
v -1.293470 0.630000 -3.122713
v -2.390021 0.630000 -2.390021
v -3.122713 0.630000 -1.293470
v -3.380000 0.630000 -0.000000
v -3.122713 0.630000 1.293470
v -2.390021 0.630000 2.390021
v -1.293470 0.630000 3.122713
v -0.000000 0.630000 3.380000
v 1.293470 0.630000 3.122713
v 2.390021 0.630000 2.390021
v 3.122713 0.630000 1.293470
v 0.000000 0.510000 0.000000
v 0.000000 0.630000 0.000000
f 69 70 86 85
f 101 70 69
f 102 85 86
f 70 71 87 86
f 101 71 70
f 102 86 87
f 71 72 88 87
f 101 72 71
f 102 87 88
f 72 73 89 88
f 101 73 72
f 102 88 89
f 73 74 90 89
f 101 74 73
f 102 89 90
f 74 75 91 90
f 101 75 74
f 102 90 91
f 75 76 92 91
f 101 76 75
f 102 91 92
f 76 77 93 92
f 101 77 76
f 102 92 93
f 77 78 94 93
f 101 78 77
f 102 93 94
f 78 79 95 94
f 101 79 78
f 102 94 95
f 79 80 96 95
f 101 80 79
f 102 95 96
f 80 81 97 96
f 101 81 80
f 102 96 97
f 81 82 98 97
f 101 82 81
f 102 97 98
f 82 83 99 98
f 101 83 82
f 102 98 99
f 83 84 100 99
f 101 84 83
f 102 99 100
f 84 69 85 100
f 101 69 84
f 102 100 85
o Center_Column
usemtl Paint_Cream
v 0.380000 0.475000 -0.000000
v 0.329090 0.475000 -0.190000
v 0.190000 0.475000 -0.329090
v 0.000000 0.475000 -0.380000
v -0.190000 0.475000 -0.329090
v -0.329090 0.475000 -0.190000
v -0.380000 0.475000 -0.000000
v -0.329090 0.475000 0.190000
v -0.190000 0.475000 0.329090
v -0.000000 0.475000 0.380000
v 0.190000 0.475000 0.329090
v 0.329090 0.475000 0.190000
v 0.380000 4.625000 -0.000000
v 0.329090 4.625000 -0.190000
v 0.190000 4.625000 -0.329090
v 0.000000 4.625000 -0.380000
v -0.190000 4.625000 -0.329090
v -0.329090 4.625000 -0.190000
v -0.380000 4.625000 -0.000000
v -0.329090 4.625000 0.190000
v -0.190000 4.625000 0.329090
v -0.000000 4.625000 0.380000
v 0.190000 4.625000 0.329090
v 0.329090 4.625000 0.190000
v 0.000000 0.475000 0.000000
v 0.000000 4.625000 0.000000
f 103 104 116 115
f 127 104 103
f 128 115 116
f 104 105 117 116
f 127 105 104
f 128 116 117
f 105 106 118 117
f 127 106 105
f 128 117 118
f 106 107 119 118
f 127 107 106
f 128 118 119
f 107 108 120 119
f 127 108 107
f 128 119 120
f 108 109 121 120
f 127 109 108
f 128 120 121
f 109 110 122 121
f 127 110 109
f 128 121 122
f 110 111 123 122
f 127 111 110
f 128 122 123
f 111 112 124 123
f 127 112 111
f 128 123 124
f 112 113 125 124
f 127 113 112
f 128 124 125
f 113 114 126 125
f 127 114 113
f 128 125 126
f 114 103 115 126
f 127 103 114
f 128 126 115
o Center_Gold_Band
usemtl Gold
v 0.450000 1.860000 -0.000000
v 0.389711 1.860000 -0.225000
v 0.225000 1.860000 -0.389711
v 0.000000 1.860000 -0.450000
v -0.225000 1.860000 -0.389711
v -0.389711 1.860000 -0.225000
v -0.450000 1.860000 -0.000000
v -0.389711 1.860000 0.225000
v -0.225000 1.860000 0.389711
v -0.000000 1.860000 0.450000
v 0.225000 1.860000 0.389711
v 0.389711 1.860000 0.225000
v 0.450000 2.140000 -0.000000
v 0.389711 2.140000 -0.225000
v 0.225000 2.140000 -0.389711
v 0.000000 2.140000 -0.450000
v -0.225000 2.140000 -0.389711
v -0.389711 2.140000 -0.225000
v -0.450000 2.140000 -0.000000
v -0.389711 2.140000 0.225000
v -0.225000 2.140000 0.389711
v -0.000000 2.140000 0.450000
v 0.225000 2.140000 0.389711
v 0.389711 2.140000 0.225000
v 0.000000 1.860000 0.000000
v 0.000000 2.140000 0.000000
f 129 130 142 141
f 153 130 129
f 154 141 142
f 130 131 143 142
f 153 131 130
f 154 142 143
f 131 132 144 143
f 153 132 131
f 154 143 144
f 132 133 145 144
f 153 133 132
f 154 144 145
f 133 134 146 145
f 153 134 133
f 154 145 146
f 134 135 147 146
f 153 135 134
f 154 146 147
f 135 136 148 147
f 153 136 135
f 154 147 148
f 136 137 149 148
f 153 137 136
f 154 148 149
f 137 138 150 149
f 153 138 137
f 154 149 150
f 138 139 151 150
f 153 139 138
f 154 150 151
f 139 140 152 151
f 153 140 139
f 154 151 152
f 140 129 141 152
f 153 129 140
f 154 152 141
o Canopy_Skirt
usemtl Paint_Red
v 3.380000 4.340000 -0.000000
v 3.122713 4.340000 -1.293470
v 2.390021 4.340000 -2.390021
v 1.293470 4.340000 -3.122713
v 0.000000 4.340000 -3.380000
v -1.293470 4.340000 -3.122713
v -2.390021 4.340000 -2.390021
v -3.122713 4.340000 -1.293470
v -3.380000 4.340000 -0.000000
v -3.122713 4.340000 1.293470
v -2.390021 4.340000 2.390021
v -1.293470 4.340000 3.122713
v -0.000000 4.340000 3.380000
v 1.293470 4.340000 3.122713
v 2.390021 4.340000 2.390021
v 3.122713 4.340000 1.293470
v 3.050000 4.760000 -0.000000
v 2.817833 4.760000 -1.167184
v 2.156676 4.760000 -2.156676
v 1.167184 4.760000 -2.817833
v 0.000000 4.760000 -3.050000
v -1.167184 4.760000 -2.817833
v -2.156676 4.760000 -2.156676
v -2.817833 4.760000 -1.167184
v -3.050000 4.760000 -0.000000
v -2.817833 4.760000 1.167184
v -2.156676 4.760000 2.156676
v -1.167184 4.760000 2.817833
v -0.000000 4.760000 3.050000
v 1.167184 4.760000 2.817833
v 2.156676 4.760000 2.156676
v 2.817833 4.760000 1.167184
v 0.000000 4.340000 0.000000
v 0.000000 4.760000 0.000000
f 155 156 172 171
f 187 156 155
f 188 171 172
f 156 157 173 172
f 187 157 156
f 188 172 173
f 157 158 174 173
f 187 158 157
f 188 173 174
f 158 159 175 174
f 187 159 158
f 188 174 175
f 159 160 176 175
f 187 160 159
f 188 175 176
f 160 161 177 176
f 187 161 160
f 188 176 177
f 161 162 178 177
f 187 162 161
f 188 177 178
f 162 163 179 178
f 187 163 162
f 188 178 179
f 163 164 180 179
f 187 164 163
f 188 179 180
f 164 165 181 180
f 187 165 164
f 188 180 181
f 165 166 182 181
f 187 166 165
f 188 181 182
f 166 167 183 182
f 187 167 166
f 188 182 183
f 167 168 184 183
f 187 168 167
f 188 183 184
f 168 169 185 184
f 187 169 168
f 188 184 185
f 169 170 186 185
f 187 170 169
f 188 185 186
f 170 155 171 186
f 187 155 170
f 188 186 171
o Canopy_Roof
usemtl Paint_Cream
v 3.080000 4.625000 -0.000000
v 2.845549 4.625000 -1.178665
v 2.177889 4.625000 -2.177889
v 1.178665 4.625000 -2.845549
v 0.000000 4.625000 -3.080000
v -1.178665 4.625000 -2.845549
v -2.177889 4.625000 -2.177889
v -2.845549 4.625000 -1.178665
v -3.080000 4.625000 -0.000000
v -2.845549 4.625000 1.178665
v -2.177889 4.625000 2.177889
v -1.178665 4.625000 2.845549
v -0.000000 4.625000 3.080000
v 1.178665 4.625000 2.845549
v 2.177889 4.625000 2.177889
v 2.845549 4.625000 1.178665
v 0.340000 5.675000 -0.000000
v 0.314119 5.675000 -0.130112
v 0.240416 5.675000 -0.240416
v 0.130112 5.675000 -0.314119
v 0.000000 5.675000 -0.340000
v -0.130112 5.675000 -0.314119
v -0.240416 5.675000 -0.240416
v -0.314119 5.675000 -0.130112
v -0.340000 5.675000 -0.000000
v -0.314119 5.675000 0.130112
v -0.240416 5.675000 0.240416
v -0.130112 5.675000 0.314119
v -0.000000 5.675000 0.340000
v 0.130112 5.675000 0.314119
v 0.240416 5.675000 0.240416
v 0.314119 5.675000 0.130112
v 0.000000 4.625000 0.000000
v 0.000000 5.675000 0.000000
f 189 190 206 205
f 221 190 189
f 222 205 206
f 190 191 207 206
f 221 191 190
f 222 206 207
f 191 192 208 207
f 221 192 191
f 222 207 208
f 192 193 209 208
f 221 193 192
f 222 208 209
f 193 194 210 209
f 221 194 193
f 222 209 210
f 194 195 211 210
f 221 195 194
f 222 210 211
f 195 196 212 211
f 221 196 195
f 222 211 212
f 196 197 213 212
f 221 197 196
f 222 212 213
f 197 198 214 213
f 221 198 197
f 222 213 214
f 198 199 215 214
f 221 199 198
f 222 214 215
f 199 200 216 215
f 221 200 199
f 222 215 216
f 200 201 217 216
f 221 201 200
f 222 216 217
f 201 202 218 217
f 221 202 201
f 222 217 218
f 202 203 219 218
f 221 203 202
f 222 218 219
f 203 204 220 219
f 221 204 203
f 222 219 220
f 204 189 205 220
f 221 189 204
f 222 220 205
o Canopy_Top
usemtl Gold
v 0.150000 5.575000 -0.000000
v 0.121353 5.575000 -0.088168
v 0.046353 5.575000 -0.142658
v -0.046353 5.575000 -0.142658
v -0.121353 5.575000 -0.088168
v -0.150000 5.575000 -0.000000
v -0.121353 5.575000 0.088168
v -0.046353 5.575000 0.142658
v 0.046353 5.575000 0.142658
v 0.121353 5.575000 0.088168
v 0.020000 6.225000 -0.000000
v 0.016180 6.225000 -0.011756
v 0.006180 6.225000 -0.019021
v -0.006180 6.225000 -0.019021
v -0.016180 6.225000 -0.011756
v -0.020000 6.225000 -0.000000
v -0.016180 6.225000 0.011756
v -0.006180 6.225000 0.019021
v 0.006180 6.225000 0.019021
v 0.016180 6.225000 0.011756
v 0.000000 5.575000 0.000000
v 0.000000 6.225000 0.000000
f 223 224 234 233
f 243 224 223
f 244 233 234
f 224 225 235 234
f 243 225 224
f 244 234 235
f 225 226 236 235
f 243 226 225
f 244 235 236
f 226 227 237 236
f 243 227 226
f 244 236 237
f 227 228 238 237
f 243 228 227
f 244 237 238
f 228 229 239 238
f 243 229 228
f 244 238 239
f 229 230 240 239
f 243 230 229
f 244 239 240
f 230 231 241 240
f 243 231 230
f 244 240 241
f 231 232 242 241
f 243 232 231
f 244 241 242
f 232 223 233 242
f 243 223 232
f 244 242 233
o Horse_01
usemtl Horse_White
v 2.450000 2.140000 -0.000000
v 2.450000 2.040416 -0.438406
v 2.325000 2.040416 -0.310000
v 2.273223 2.040416 -0.000000
v 2.325000 2.040416 0.310000
v 2.450000 2.040416 0.438406
v 2.575000 2.040416 0.310000
v 2.626777 2.040416 0.000000
v 2.575000 2.040416 -0.310000
v 2.450000 1.800000 -0.620000
v 2.273223 1.800000 -0.438406
v 2.200000 1.800000 -0.000000
v 2.273223 1.800000 0.438406
v 2.450000 1.800000 0.620000
v 2.626777 1.800000 0.438406
v 2.700000 1.800000 0.000000
v 2.626777 1.800000 -0.438406
v 2.450000 1.559584 -0.438406
v 2.325000 1.559584 -0.310000
v 2.273223 1.559584 -0.000000
v 2.325000 1.559584 0.310000
v 2.450000 1.559584 0.438406
v 2.575000 1.559584 0.310000
v 2.626777 1.559584 0.000000
v 2.575000 1.559584 -0.310000
v 2.450000 1.460000 -0.000000
v 2.640000 1.960000 -0.350000
v 2.568463 1.884583 -0.477980
v 2.407721 1.865957 -0.509588
v 2.278816 1.918147 -0.421023
v 2.278816 2.001853 -0.278977
v 2.407721 2.054043 -0.190412
v 2.568463 2.035417 -0.222020
v 2.640000 2.520000 -0.680000
v 2.568463 2.444583 -0.807980
v 2.407721 2.425957 -0.839588
v 2.278816 2.478147 -0.751023
v 2.278816 2.561853 -0.608977
v 2.407721 2.614043 -0.520412
v 2.568463 2.595417 -0.552020
v 2.450000 2.820000 -0.820000
v 2.450000 2.700000 -1.114449
v 2.314583 2.700000 -1.003586
v 2.281138 2.700000 -0.754479
v 2.374849 2.700000 -0.554711
v 2.525151 2.700000 -0.554711
v 2.618862 2.700000 -0.754479
v 2.585417 2.700000 -1.003586
v 2.450000 2.460000 -1.114449
v 2.314583 2.460000 -1.003586
v 2.281138 2.460000 -0.754479
v 2.374849 2.460000 -0.554711
v 2.525151 2.460000 -0.554711
v 2.618862 2.460000 -0.754479
v 2.585417 2.460000 -1.003586
v 2.450000 2.340000 -0.820000
v 2.450000 2.640000 -1.080000
v 2.450000 2.570000 -1.279186
v 2.341666 2.570000 -1.204190
v 2.314910 2.570000 -1.035677
v 2.389879 2.570000 -0.900540
v 2.510121 2.570000 -0.900540
v 2.585090 2.570000 -1.035677
v 2.558334 2.570000 -1.204190
v 2.450000 2.430000 -1.279186
v 2.341666 2.430000 -1.204190
v 2.314910 2.430000 -1.035677
v 2.389879 2.430000 -0.900540
v 2.510121 2.430000 -0.900540
v 2.585090 2.430000 -1.035677
v 2.558334 2.430000 -1.204190
v 2.450000 2.360000 -1.080000
v 2.590000 1.631578 0.275899
v 2.654952 1.625789 0.312950
v 2.654952 1.614211 0.387050
v 2.590000 1.608422 0.424101
v 2.525048 1.614211 0.387050
v 2.525048 1.625789 0.312950
v 2.590000 0.991578 0.175899
v 2.654952 0.985789 0.212950
v 2.654952 0.974211 0.287050
v 2.590000 0.968422 0.324101
v 2.525048 0.974211 0.287050
v 2.525048 0.985789 0.212950
v 2.590000 1.631578 -0.414101
v 2.654952 1.625789 -0.377050
v 2.654952 1.614211 -0.302950
v 2.590000 1.608422 -0.265899
v 2.525048 1.614211 -0.302950
v 2.525048 1.625789 -0.377050
v 2.590000 0.991578 -0.514101
v 2.654952 0.985789 -0.477050
v 2.654952 0.974211 -0.402950
v 2.590000 0.968422 -0.365899
v 2.525048 0.974211 -0.402950
v 2.525048 0.985789 -0.477050
v 2.310000 1.631578 0.275899
v 2.374952 1.625789 0.312950
v 2.374952 1.614211 0.387050
v 2.310000 1.608422 0.424101
v 2.245048 1.614211 0.387050
v 2.245048 1.625789 0.312950
v 2.310000 0.991578 0.175899
v 2.374952 0.985789 0.212950
v 2.374952 0.974211 0.287050
v 2.310000 0.968422 0.324101
v 2.245048 0.974211 0.287050
v 2.245048 0.985789 0.212950
v 2.310000 1.631578 -0.414101
v 2.374952 1.625789 -0.377050
v 2.374952 1.614211 -0.302950
v 2.310000 1.608422 -0.265899
v 2.245048 1.614211 -0.302950
v 2.245048 1.625789 -0.377050
v 2.310000 0.991578 -0.514101
v 2.374952 0.985789 -0.477050
v 2.374952 0.974211 -0.402950
v 2.310000 0.968422 -0.365899
v 2.245048 0.974211 -0.402950
v 2.245048 0.985789 -0.477050
v 2.375000 1.850000 0.500000
v 2.412500 1.797622 0.461590
v 2.487500 1.797622 0.461590
v 2.525000 1.850000 0.500000
v 2.487500 1.902378 0.538410
v 2.412500 1.902378 0.538410
v 2.375000 1.520000 0.950000
v 2.412500 1.467622 0.911590
v 2.487500 1.467622 0.911590
v 2.525000 1.520000 0.950000
v 2.487500 1.572378 0.988410
v 2.412500 1.572378 0.988410
v 2.550000 2.752739 -0.676496
v 2.602308 2.743937 -0.713466
v 2.582328 2.729694 -0.773286
v 2.517672 2.729694 -0.773286
v 2.497692 2.743937 -0.713466
v 2.550000 2.962739 -0.726496
v 2.602308 2.953937 -0.763466
v 2.582328 2.939694 -0.823286
v 2.517672 2.939694 -0.823286
v 2.497692 2.953937 -0.763466
v 2.350000 2.752739 -0.676496
v 2.402308 2.743937 -0.713466
v 2.382328 2.729694 -0.773286
v 2.317672 2.729694 -0.773286
v 2.297692 2.743937 -0.713466
v 2.350000 2.962739 -0.726496
v 2.402308 2.953937 -0.763466
v 2.382328 2.939694 -0.823286
v 2.317672 2.939694 -0.823286
v 2.297692 2.953937 -0.763466
f 245 246 247
f 245 247 248
f 245 248 249
f 245 249 250
f 245 250 251
f 245 251 252
f 245 252 253
f 245 253 246
f 246 254 255
f 246 255 247
f 247 255 256
f 247 256 248
f 248 256 257
f 248 257 249
f 249 257 258
f 249 258 250
f 250 258 259
f 250 259 251
f 251 259 260
f 251 260 252
f 252 260 261
f 252 261 253
f 253 261 254
f 253 254 246
f 254 262 263
f 254 263 255
f 255 263 264
f 255 264 256
f 256 264 265
f 256 265 257
f 257 265 266
f 257 266 258
f 258 266 267
f 258 267 259
f 259 267 268
f 259 268 260
f 260 268 269
f 260 269 261
f 261 269 262
f 261 262 254
f 270 263 262
f 270 264 263
f 270 265 264
f 270 266 265
f 270 267 266
f 270 268 267
f 270 269 268
f 270 262 269
f 271 272 279 278
f 272 273 280 279
f 273 274 281 280
f 274 275 282 281
f 275 276 283 282
f 276 277 284 283
f 277 271 278 284
f 285 286 287
f 285 287 288
f 285 288 289
f 285 289 290
f 285 290 291
f 285 291 292
f 285 292 286
f 286 293 294
f 286 294 287
f 287 294 295
f 287 295 288
f 288 295 296
f 288 296 289
f 289 296 297
f 289 297 290
f 290 297 298
f 290 298 291
f 291 298 299
f 291 299 292
f 292 299 293
f 292 293 286
f 300 294 293
f 300 295 294
f 300 296 295
f 300 297 296
f 300 298 297
f 300 299 298
f 300 293 299
f 301 302 303
f 301 303 304
f 301 304 305
f 301 305 306
f 301 306 307
f 301 307 308
f 301 308 302
f 302 309 310
f 302 310 303
f 303 310 311
f 303 311 304
f 304 311 312
f 304 312 305
f 305 312 313
f 305 313 306
f 306 313 314
f 306 314 307
f 307 314 315
f 307 315 308
f 308 315 309
f 308 309 302
f 316 310 309
f 316 311 310
f 316 312 311
f 316 313 312
f 316 314 313
f 316 315 314
f 316 309 315
f 317 318 324 323
f 318 319 325 324
f 319 320 326 325
f 320 321 327 326
f 321 322 328 327
f 322 317 323 328
f 329 330 336 335
f 330 331 337 336
f 331 332 338 337
f 332 333 339 338
f 333 334 340 339
f 334 329 335 340
f 341 342 348 347
f 342 343 349 348
f 343 344 350 349
f 344 345 351 350
f 345 346 352 351
f 346 341 347 352
f 353 354 360 359
f 354 355 361 360
f 355 356 362 361
f 356 357 363 362
f 357 358 364 363
f 358 353 359 364
f 365 366 372 371
f 366 367 373 372
f 367 368 374 373
f 368 369 375 374
f 369 370 376 375
f 370 365 371 376
f 377 378 383 382
f 378 379 384 383
f 379 380 385 384
f 380 381 386 385
f 381 377 382 386
f 387 388 393 392
f 388 389 394 393
f 389 390 395 394
f 390 391 396 395
f 391 387 392 396
o Horse_Pole_01
usemtl Gold
v 2.495000 0.575000 -0.000000
v 2.478057 0.575000 -0.035182
v 2.439987 0.575000 -0.043872
v 2.409456 0.575000 -0.019525
v 2.409456 0.575000 0.019525
v 2.439987 0.575000 0.043872
v 2.478057 0.575000 0.035182
v 2.495000 4.525000 -0.000000
v 2.478057 4.525000 -0.035182
v 2.439987 4.525000 -0.043872
v 2.409456 4.525000 -0.019525
v 2.409456 4.525000 0.019525
v 2.439987 4.525000 0.043872
v 2.478057 4.525000 0.035182
v 2.450000 0.575000 -0.000000
v 2.450000 4.525000 -0.000000
f 397 398 405 404
f 411 398 397
f 412 404 405
f 398 399 406 405
f 411 399 398
f 412 405 406
f 399 400 407 406
f 411 400 399
f 412 406 407
f 400 401 408 407
f 411 401 400
f 412 407 408
f 401 402 409 408
f 411 402 401
f 412 408 409
f 402 403 410 409
f 411 403 402
f 412 409 410
f 403 397 404 410
f 411 397 403
f 412 410 404
o Horse_02
usemtl Horse_Tan
v 1.732412 2.140000 -1.732412
v 1.422412 2.040416 -2.042412
v 1.424820 2.040416 -1.863226
v 1.607412 2.040416 -1.607412
v 1.863226 2.040416 -1.424820
v 2.042412 2.040416 -1.422412
v 2.040003 2.040416 -1.601597
v 1.857412 2.040416 -1.857412
v 1.601597 2.040416 -2.040003
v 1.294005 1.800000 -2.170818
v 1.297412 1.800000 -1.917412
v 1.555635 1.800000 -1.555635
v 1.917412 1.800000 -1.297412
v 2.170818 1.800000 -1.294005
v 2.167412 1.800000 -1.547412
v 1.909188 1.800000 -1.909188
v 1.547412 1.800000 -2.167412
v 1.422412 1.559584 -2.042412
v 1.424820 1.559584 -1.863226
v 1.607412 1.559584 -1.607412
v 1.863226 1.559584 -1.424820
v 2.042412 1.559584 -1.422412
v 2.040003 1.559584 -1.601597
v 1.857412 1.559584 -1.857412
v 1.601597 1.559584 -2.040003
v 1.732412 1.460000 -1.732412
v 1.619275 1.960000 -2.114249
v 1.478195 1.884583 -2.154160
v 1.342183 1.865957 -2.062849
v 1.313658 1.918147 -1.909075
v 1.414100 2.001853 -1.808632
v 1.567874 2.054043 -1.837157
v 1.659186 2.035417 -1.973170
v 1.385929 2.520000 -2.347595
v 1.244850 2.444583 -2.387506
v 1.108837 2.425957 -2.296194
v 1.080312 2.478147 -2.142420
v 1.180755 2.561853 -2.041978
v 1.334529 2.614043 -2.070503
v 1.425840 2.595417 -2.206515
v 1.152584 2.820000 -2.312239
v 0.944377 2.700000 -2.520446
v 0.927015 2.700000 -2.346299
v 1.079511 2.700000 -2.146505
v 1.287032 2.700000 -2.071512
v 1.393311 2.700000 -2.177791
v 1.318318 2.700000 -2.385313
v 1.118524 2.700000 -2.537808
v 0.944377 2.460000 -2.520446
v 0.927015 2.460000 -2.346299
v 1.079511 2.460000 -2.146505
v 1.287032 2.460000 -2.071512
v 1.393311 2.460000 -2.177791
v 1.318318 2.460000 -2.385313
v 1.118524 2.460000 -2.537808
v 1.152584 2.340000 -2.312239
v 0.968736 2.640000 -2.496087
v 0.827891 2.570000 -2.636933
v 0.804317 2.570000 -2.507299
v 0.904554 2.570000 -2.369223
v 1.053122 2.570000 -2.326678
v 1.138146 2.570000 -2.411701
v 1.095600 2.570000 -2.560269
v 0.957524 2.570000 -2.660506
v 0.827891 2.430000 -2.636933
v 0.804317 2.430000 -2.507299
v 0.904554 2.430000 -2.369223
v 1.053122 2.430000 -2.326678
v 1.138146 2.430000 -2.411701
v 1.095600 2.430000 -2.560269
v 0.957524 2.430000 -2.660506
v 0.968736 2.360000 -2.496087
v 2.026497 1.631578 -1.636316
v 2.098623 1.625789 -1.656046
v 2.151020 1.614211 -1.603648
v 2.131291 1.608422 -1.531522
v 2.059165 1.614211 -1.511793
v 2.006767 1.625789 -1.564190
v 1.955786 0.991578 -1.707027
v 2.027913 0.985789 -1.726756
v 2.080310 0.974211 -1.674359
v 2.060581 0.968422 -1.602233
v 1.988454 0.974211 -1.582503
v 1.936057 0.985789 -1.634901
v 1.538593 1.631578 -2.124220
v 1.610720 1.625789 -2.143949
v 1.663117 1.614211 -2.091552
v 1.643388 1.608422 -2.019426
v 1.571261 1.614211 -1.999696
v 1.518864 1.625789 -2.052094
v 1.467882 0.991578 -2.194931
v 1.540009 0.985789 -2.214660
v 1.592406 0.974211 -2.162263
v 1.572677 0.968422 -2.090136
v 1.500550 0.974211 -2.070407
v 1.448153 0.985789 -2.122804
v 1.828507 1.631578 -1.438327
v 1.900633 1.625789 -1.458056
v 1.953031 1.614211 -1.405659
v 1.933301 1.608422 -1.333532
v 1.861175 1.614211 -1.313803
v 1.808777 1.625789 -1.366200
v 1.757796 0.991578 -1.509037
v 1.829923 0.985789 -1.528767
v 1.882320 0.974211 -1.476369
v 1.862591 0.968422 -1.404243
v 1.790464 0.974211 -1.384513
v 1.738067 0.985789 -1.436911
v 1.340603 1.631578 -1.926230
v 1.412730 1.625789 -1.945960
v 1.465127 1.614211 -1.893562
v 1.445398 1.608422 -1.821436
v 1.373271 1.614211 -1.801706
v 1.320874 1.625789 -1.854104
v 1.269892 0.991578 -1.996941
v 1.342019 0.985789 -2.016670
v 1.394416 0.974211 -1.964273
v 1.374687 0.968422 -1.892146
v 1.302560 0.974211 -1.872417
v 1.250163 0.985789 -1.924814
v 2.032932 1.850000 -1.325825
v 2.032288 1.797622 -1.379502
v 2.085321 1.797622 -1.432535
v 2.138998 1.850000 -1.431891
v 2.139642 1.902378 -1.378215
v 2.086609 1.902378 -1.325182
v 2.351130 1.520000 -1.007627
v 2.350486 1.467622 -1.061304
v 2.403519 1.467622 -1.114337
v 2.457196 1.520000 -1.113693
v 2.457840 1.572378 -1.060017
v 2.404807 1.572378 -1.006984
v 1.324768 2.752739 -2.281477
v 1.335613 2.743937 -2.344607
v 1.279186 2.729694 -2.372777
v 1.233467 2.729694 -2.327059
v 1.261638 2.743937 -2.270632
v 1.289412 2.962739 -2.316832
v 1.300258 2.953937 -2.379962
v 1.243831 2.939694 -2.408133
v 1.198112 2.939694 -2.362414
v 1.226283 2.953937 -2.305987
v 1.183346 2.752739 -2.140056
v 1.194192 2.743937 -2.203185
v 1.137765 2.729694 -2.231356
v 1.092046 2.729694 -2.185637
v 1.120217 2.743937 -2.129210
v 1.147991 2.962739 -2.175411
v 1.158836 2.953937 -2.238541
v 1.102409 2.939694 -2.266711
v 1.056690 2.939694 -2.220993
v 1.084861 2.953937 -2.164566
f 413 414 415
f 413 415 416
f 413 416 417
f 413 417 418
f 413 418 419
f 413 419 420
f 413 420 421
f 413 421 414
f 414 422 423
f 414 423 415
f 415 423 424
f 415 424 416
f 416 424 425
f 416 425 417
f 417 425 426
f 417 426 418
f 418 426 427
f 418 427 419
f 419 427 428
f 419 428 420
f 420 428 429
f 420 429 421
f 421 429 422
f 421 422 414
f 422 430 431
f 422 431 423
f 423 431 432
f 423 432 424
f 424 432 433
f 424 433 425
f 425 433 434
f 425 434 426
f 426 434 435
f 426 435 427
f 427 435 436
f 427 436 428
f 428 436 437
f 428 437 429
f 429 437 430
f 429 430 422
f 438 431 430
f 438 432 431
f 438 433 432
f 438 434 433
f 438 435 434
f 438 436 435
f 438 437 436
f 438 430 437
f 439 440 447 446
f 440 441 448 447
f 441 442 449 448
f 442 443 450 449
f 443 444 451 450
f 444 445 452 451
f 445 439 446 452
f 453 454 455
f 453 455 456
f 453 456 457
f 453 457 458
f 453 458 459
f 453 459 460
f 453 460 454
f 454 461 462
f 454 462 455
f 455 462 463
f 455 463 456
f 456 463 464
f 456 464 457
f 457 464 465
f 457 465 458
f 458 465 466
f 458 466 459
f 459 466 467
f 459 467 460
f 460 467 461
f 460 461 454
f 468 462 461
f 468 463 462
f 468 464 463
f 468 465 464
f 468 466 465
f 468 467 466
f 468 461 467
f 469 470 471
f 469 471 472
f 469 472 473
f 469 473 474
f 469 474 475
f 469 475 476
f 469 476 470
f 470 477 478
f 470 478 471
f 471 478 479
f 471 479 472
f 472 479 480
f 472 480 473
f 473 480 481
f 473 481 474
f 474 481 482
f 474 482 475
f 475 482 483
f 475 483 476
f 476 483 477
f 476 477 470
f 484 478 477
f 484 479 478
f 484 480 479
f 484 481 480
f 484 482 481
f 484 483 482
f 484 477 483
f 485 486 492 491
f 486 487 493 492
f 487 488 494 493
f 488 489 495 494
f 489 490 496 495
f 490 485 491 496
f 497 498 504 503
f 498 499 505 504
f 499 500 506 505
f 500 501 507 506
f 501 502 508 507
f 502 497 503 508
f 509 510 516 515
f 510 511 517 516
f 511 512 518 517
f 512 513 519 518
f 513 514 520 519
f 514 509 515 520
f 521 522 528 527
f 522 523 529 528
f 523 524 530 529
f 524 525 531 530
f 525 526 532 531
f 526 521 527 532
f 533 534 540 539
f 534 535 541 540
f 535 536 542 541
f 536 537 543 542
f 537 538 544 543
f 538 533 539 544
f 545 546 551 550
f 546 547 552 551
f 547 548 553 552
f 548 549 554 553
f 549 545 550 554
f 555 556 561 560
f 556 557 562 561
f 557 558 563 562
f 558 559 564 563
f 559 555 560 564
o Horse_Pole_02
usemtl Gold
v 1.777412 0.575000 -1.732412
v 1.760469 0.575000 -1.767594
v 1.722398 0.575000 -1.776283
v 1.691868 0.575000 -1.751936
v 1.691868 0.575000 -1.712887
v 1.722398 0.575000 -1.688540
v 1.760469 0.575000 -1.697229
v 1.777412 4.525000 -1.732412
v 1.760469 4.525000 -1.767594
v 1.722398 4.525000 -1.776283
v 1.691868 4.525000 -1.751936
v 1.691868 4.525000 -1.712887
v 1.722398 4.525000 -1.688540
v 1.760469 4.525000 -1.697229
v 1.732412 0.575000 -1.732412
v 1.732412 4.525000 -1.732412
f 565 566 573 572
f 579 566 565
f 580 572 573
f 566 567 574 573
f 579 567 566
f 580 573 574
f 567 568 575 574
f 579 568 567
f 580 574 575
f 568 569 576 575
f 579 569 568
f 580 575 576
f 569 570 577 576
f 579 570 569
f 580 576 577
f 570 571 578 577
f 579 571 570
f 580 577 578
f 571 565 572 578
f 579 565 571
f 580 578 572
o Horse_03
usemtl Horse_White
v 0.000000 2.140000 -2.450000
v -0.438406 2.040416 -2.450000
v -0.310000 2.040416 -2.325000
v 0.000000 2.040416 -2.273223
v 0.310000 2.040416 -2.325000
v 0.438406 2.040416 -2.450000
v 0.310000 2.040416 -2.575000
v 0.000000 2.040416 -2.626777
v -0.310000 2.040416 -2.575000
v -0.620000 1.800000 -2.450000
v -0.438406 1.800000 -2.273223
v 0.000000 1.800000 -2.200000
v 0.438406 1.800000 -2.273223
v 0.620000 1.800000 -2.450000
v 0.438406 1.800000 -2.626777
v 0.000000 1.800000 -2.700000
v -0.438406 1.800000 -2.626777
v -0.438406 1.559584 -2.450000
v -0.310000 1.559584 -2.325000
v 0.000000 1.559584 -2.273223
v 0.310000 1.559584 -2.325000
v 0.438406 1.559584 -2.450000
v 0.310000 1.559584 -2.575000
v 0.000000 1.559584 -2.626777
v -0.310000 1.559584 -2.575000
v 0.000000 1.460000 -2.450000
v -0.350000 1.960000 -2.640000
v -0.477980 1.884583 -2.568463
v -0.509588 1.865957 -2.407721
v -0.421023 1.918147 -2.278816
v -0.278977 2.001853 -2.278816
v -0.190412 2.054043 -2.407721
v -0.222020 2.035417 -2.568463
v -0.680000 2.520000 -2.640000
v -0.807980 2.444583 -2.568463
v -0.839588 2.425957 -2.407721
v -0.751023 2.478147 -2.278816
v -0.608977 2.561853 -2.278816
v -0.520412 2.614043 -2.407721
v -0.552020 2.595417 -2.568463
v -0.820000 2.820000 -2.450000
v -1.114449 2.700000 -2.450000
v -1.003586 2.700000 -2.314583
v -0.754479 2.700000 -2.281138
v -0.554711 2.700000 -2.374849
v -0.554711 2.700000 -2.525151
v -0.754479 2.700000 -2.618862
v -1.003586 2.700000 -2.585417
v -1.114449 2.460000 -2.450000
v -1.003586 2.460000 -2.314583
v -0.754479 2.460000 -2.281138
v -0.554711 2.460000 -2.374849
v -0.554711 2.460000 -2.525151
v -0.754479 2.460000 -2.618862
v -1.003586 2.460000 -2.585417
v -0.820000 2.340000 -2.450000
v -1.080000 2.640000 -2.450000
v -1.279186 2.570000 -2.450000
v -1.204190 2.570000 -2.341666
v -1.035677 2.570000 -2.314910
v -0.900540 2.570000 -2.389879
v -0.900540 2.570000 -2.510121
v -1.035677 2.570000 -2.585090
v -1.204190 2.570000 -2.558334
v -1.279186 2.430000 -2.450000
v -1.204190 2.430000 -2.341666
v -1.035677 2.430000 -2.314910
v -0.900540 2.430000 -2.389879
v -0.900540 2.430000 -2.510121
v -1.035677 2.430000 -2.585090
v -1.204190 2.430000 -2.558334
v -1.080000 2.360000 -2.450000
v 0.275899 1.631578 -2.590000
v 0.312950 1.625789 -2.654952
v 0.387050 1.614211 -2.654952
v 0.424101 1.608422 -2.590000
v 0.387050 1.614211 -2.525048
v 0.312950 1.625789 -2.525048
v 0.175899 0.991578 -2.590000
v 0.212950 0.985789 -2.654952
v 0.287050 0.974211 -2.654952
v 0.324101 0.968422 -2.590000
v 0.287050 0.974211 -2.525048
v 0.212950 0.985789 -2.525048
v -0.414101 1.631578 -2.590000
v -0.377050 1.625789 -2.654952
v -0.302950 1.614211 -2.654952
v -0.265899 1.608422 -2.590000
v -0.302950 1.614211 -2.525048
v -0.377050 1.625789 -2.525048
v -0.514101 0.991578 -2.590000
v -0.477050 0.985789 -2.654952
v -0.402950 0.974211 -2.654952
v -0.365899 0.968422 -2.590000
v -0.402950 0.974211 -2.525048
v -0.477050 0.985789 -2.525048
v 0.275899 1.631578 -2.310000
v 0.312950 1.625789 -2.374952
v 0.387050 1.614211 -2.374952
v 0.424101 1.608422 -2.310000
v 0.387050 1.614211 -2.245048
v 0.312950 1.625789 -2.245048
v 0.175899 0.991578 -2.310000
v 0.212950 0.985789 -2.374952
v 0.287050 0.974211 -2.374952
v 0.324101 0.968422 -2.310000
v 0.287050 0.974211 -2.245048
v 0.212950 0.985789 -2.245048
v -0.414101 1.631578 -2.310000
v -0.377050 1.625789 -2.374952
v -0.302950 1.614211 -2.374952
v -0.265899 1.608422 -2.310000
v -0.302950 1.614211 -2.245048
v -0.377050 1.625789 -2.245048
v -0.514101 0.991578 -2.310000
v -0.477050 0.985789 -2.374952
v -0.402950 0.974211 -2.374952
v -0.365899 0.968422 -2.310000
v -0.402950 0.974211 -2.245048
v -0.477050 0.985789 -2.245048
v 0.500000 1.850000 -2.375000
v 0.461590 1.797622 -2.412500
v 0.461590 1.797622 -2.487500
v 0.500000 1.850000 -2.525000
v 0.538410 1.902378 -2.487500
v 0.538410 1.902378 -2.412500
v 0.950000 1.520000 -2.375000
v 0.911590 1.467622 -2.412500
v 0.911590 1.467622 -2.487500
v 0.950000 1.520000 -2.525000
v 0.988410 1.572378 -2.487500
v 0.988410 1.572378 -2.412500
v -0.676496 2.752739 -2.550000
v -0.713466 2.743937 -2.602308
v -0.773286 2.729694 -2.582328
v -0.773286 2.729694 -2.517672
v -0.713466 2.743937 -2.497692
v -0.726496 2.962739 -2.550000
v -0.763466 2.953937 -2.602308
v -0.823286 2.939694 -2.582328
v -0.823286 2.939694 -2.517672
v -0.763466 2.953937 -2.497692
v -0.676496 2.752739 -2.350000
v -0.713466 2.743937 -2.402308
v -0.773286 2.729694 -2.382328
v -0.773286 2.729694 -2.317672
v -0.713466 2.743937 -2.297692
v -0.726496 2.962739 -2.350000
v -0.763466 2.953937 -2.402308
v -0.823286 2.939694 -2.382328
v -0.823286 2.939694 -2.317672
v -0.763466 2.953937 -2.297692
f 581 582 583
f 581 583 584
f 581 584 585
f 581 585 586
f 581 586 587
f 581 587 588
f 581 588 589
f 581 589 582
f 582 590 591
f 582 591 583
f 583 591 592
f 583 592 584
f 584 592 593
f 584 593 585
f 585 593 594
f 585 594 586
f 586 594 595
f 586 595 587
f 587 595 596
f 587 596 588
f 588 596 597
f 588 597 589
f 589 597 590
f 589 590 582
f 590 598 599
f 590 599 591
f 591 599 600
f 591 600 592
f 592 600 601
f 592 601 593
f 593 601 602
f 593 602 594
f 594 602 603
f 594 603 595
f 595 603 604
f 595 604 596
f 596 604 605
f 596 605 597
f 597 605 598
f 597 598 590
f 606 599 598
f 606 600 599
f 606 601 600
f 606 602 601
f 606 603 602
f 606 604 603
f 606 605 604
f 606 598 605
f 607 608 615 614
f 608 609 616 615
f 609 610 617 616
f 610 611 618 617
f 611 612 619 618
f 612 613 620 619
f 613 607 614 620
f 621 622 623
f 621 623 624
f 621 624 625
f 621 625 626
f 621 626 627
f 621 627 628
f 621 628 622
f 622 629 630
f 622 630 623
f 623 630 631
f 623 631 624
f 624 631 632
f 624 632 625
f 625 632 633
f 625 633 626
f 626 633 634
f 626 634 627
f 627 634 635
f 627 635 628
f 628 635 629
f 628 629 622
f 636 630 629
f 636 631 630
f 636 632 631
f 636 633 632
f 636 634 633
f 636 635 634
f 636 629 635
f 637 638 639
f 637 639 640
f 637 640 641
f 637 641 642
f 637 642 643
f 637 643 644
f 637 644 638
f 638 645 646
f 638 646 639
f 639 646 647
f 639 647 640
f 640 647 648
f 640 648 641
f 641 648 649
f 641 649 642
f 642 649 650
f 642 650 643
f 643 650 651
f 643 651 644
f 644 651 645
f 644 645 638
f 652 646 645
f 652 647 646
f 652 648 647
f 652 649 648
f 652 650 649
f 652 651 650
f 652 645 651
f 653 654 660 659
f 654 655 661 660
f 655 656 662 661
f 656 657 663 662
f 657 658 664 663
f 658 653 659 664
f 665 666 672 671
f 666 667 673 672
f 667 668 674 673
f 668 669 675 674
f 669 670 676 675
f 670 665 671 676
f 677 678 684 683
f 678 679 685 684
f 679 680 686 685
f 680 681 687 686
f 681 682 688 687
f 682 677 683 688
f 689 690 696 695
f 690 691 697 696
f 691 692 698 697
f 692 693 699 698
f 693 694 700 699
f 694 689 695 700
f 701 702 708 707
f 702 703 709 708
f 703 704 710 709
f 704 705 711 710
f 705 706 712 711
f 706 701 707 712
f 713 714 719 718
f 714 715 720 719
f 715 716 721 720
f 716 717 722 721
f 717 713 718 722
f 723 724 729 728
f 724 725 730 729
f 725 726 731 730
f 726 727 732 731
f 727 723 728 732
o Horse_Pole_03
usemtl Gold
v 0.045000 0.575000 -2.450000
v 0.028057 0.575000 -2.485182
v -0.010013 0.575000 -2.493872
v -0.040544 0.575000 -2.469525
v -0.040544 0.575000 -2.430475
v -0.010013 0.575000 -2.406128
v 0.028057 0.575000 -2.414818
v 0.045000 4.525000 -2.450000
v 0.028057 4.525000 -2.485182
v -0.010013 4.525000 -2.493872
v -0.040544 4.525000 -2.469525
v -0.040544 4.525000 -2.430475
v -0.010013 4.525000 -2.406128
v 0.028057 4.525000 -2.414818
v 0.000000 0.575000 -2.450000
v 0.000000 4.525000 -2.450000
f 733 734 741 740
f 747 734 733
f 748 740 741
f 734 735 742 741
f 747 735 734
f 748 741 742
f 735 736 743 742
f 747 736 735
f 748 742 743
f 736 737 744 743
f 747 737 736
f 748 743 744
f 737 738 745 744
f 747 738 737
f 748 744 745
f 738 739 746 745
f 747 739 738
f 748 745 746
f 739 733 740 746
f 747 733 739
f 748 746 740
o Horse_04
usemtl Horse_Tan
v -1.732412 2.140000 -1.732412
v -2.042412 2.040416 -1.422412
v -1.863226 2.040416 -1.424820
v -1.607412 2.040416 -1.607412
v -1.424820 2.040416 -1.863226
v -1.422412 2.040416 -2.042412
v -1.601597 2.040416 -2.040003
v -1.857412 2.040416 -1.857412
v -2.040003 2.040416 -1.601597
v -2.170818 1.800000 -1.294005
v -1.917412 1.800000 -1.297412
v -1.555635 1.800000 -1.555635
v -1.297412 1.800000 -1.917412
v -1.294005 1.800000 -2.170818
v -1.547412 1.800000 -2.167412
v -1.909188 1.800000 -1.909188
v -2.167412 1.800000 -1.547412
v -2.042412 1.559584 -1.422412
v -1.863226 1.559584 -1.424820
v -1.607412 1.559584 -1.607412
v -1.424820 1.559584 -1.863226
v -1.422412 1.559584 -2.042412
v -1.601597 1.559584 -2.040003
v -1.857412 1.559584 -1.857412
v -2.040003 1.559584 -1.601597
v -1.732412 1.460000 -1.732412
v -2.114249 1.960000 -1.619275
v -2.154160 1.884583 -1.478195
v -2.062849 1.865957 -1.342183
v -1.909075 1.918147 -1.313658
v -1.808632 2.001853 -1.414100
v -1.837157 2.054043 -1.567874
v -1.973170 2.035417 -1.659186
v -2.347595 2.520000 -1.385929
v -2.387506 2.444583 -1.244850
v -2.296194 2.425957 -1.108837
v -2.142420 2.478147 -1.080312
v -2.041978 2.561853 -1.180755
v -2.070503 2.614043 -1.334529
v -2.206515 2.595417 -1.425840
v -2.312239 2.820000 -1.152584
v -2.520446 2.700000 -0.944377
v -2.346299 2.700000 -0.927015
v -2.146505 2.700000 -1.079511
v -2.071512 2.700000 -1.287032
v -2.177791 2.700000 -1.393311
v -2.385313 2.700000 -1.318318
v -2.537808 2.700000 -1.118524
v -2.520446 2.460000 -0.944377
v -2.346299 2.460000 -0.927015
v -2.146505 2.460000 -1.079511
v -2.071512 2.460000 -1.287032
v -2.177791 2.460000 -1.393311
v -2.385313 2.460000 -1.318318
v -2.537808 2.460000 -1.118524
v -2.312239 2.340000 -1.152584
v -2.496087 2.640000 -0.968736
v -2.636933 2.570000 -0.827891
v -2.507299 2.570000 -0.804317
v -2.369223 2.570000 -0.904554
v -2.326678 2.570000 -1.053122
v -2.411701 2.570000 -1.138146
v -2.560269 2.570000 -1.095600
v -2.660506 2.570000 -0.957524
v -2.636933 2.430000 -0.827891
v -2.507299 2.430000 -0.804317
v -2.369223 2.430000 -0.904554
v -2.326678 2.430000 -1.053122
v -2.411701 2.430000 -1.138146
v -2.560269 2.430000 -1.095600
v -2.660506 2.430000 -0.957524
v -2.496087 2.360000 -0.968736
v -1.636316 1.631578 -2.026497
v -1.656046 1.625789 -2.098623
v -1.603648 1.614211 -2.151020
v -1.531522 1.608422 -2.131291
v -1.511793 1.614211 -2.059165
v -1.564190 1.625789 -2.006767
v -1.707027 0.991578 -1.955786
v -1.726756 0.985789 -2.027913
v -1.674359 0.974211 -2.080310
v -1.602233 0.968422 -2.060581
v -1.582503 0.974211 -1.988454
v -1.634901 0.985789 -1.936057
v -2.124220 1.631578 -1.538593
v -2.143949 1.625789 -1.610720
v -2.091552 1.614211 -1.663117
v -2.019426 1.608422 -1.643388
v -1.999696 1.614211 -1.571261
v -2.052094 1.625789 -1.518864
v -2.194931 0.991578 -1.467882
v -2.214660 0.985789 -1.540009
v -2.162263 0.974211 -1.592406
v -2.090136 0.968422 -1.572677
v -2.070407 0.974211 -1.500550
v -2.122804 0.985789 -1.448153
v -1.438327 1.631578 -1.828507
v -1.458056 1.625789 -1.900633
v -1.405659 1.614211 -1.953031
v -1.333532 1.608422 -1.933301
v -1.313803 1.614211 -1.861175
v -1.366200 1.625789 -1.808777
v -1.509037 0.991578 -1.757796
v -1.528767 0.985789 -1.829923
v -1.476369 0.974211 -1.882320
v -1.404243 0.968422 -1.862591
v -1.384513 0.974211 -1.790464
v -1.436911 0.985789 -1.738067
v -1.926230 1.631578 -1.340603
v -1.945960 1.625789 -1.412730
v -1.893562 1.614211 -1.465127
v -1.821436 1.608422 -1.445398
v -1.801706 1.614211 -1.373271
v -1.854104 1.625789 -1.320874
v -1.996941 0.991578 -1.269892
v -2.016670 0.985789 -1.342019
v -1.964273 0.974211 -1.394416
v -1.892146 0.968422 -1.374687
v -1.872417 0.974211 -1.302560
v -1.924814 0.985789 -1.250163
v -1.325825 1.850000 -2.032932
v -1.379502 1.797622 -2.032288
v -1.432535 1.797622 -2.085321
v -1.431891 1.850000 -2.138998
v -1.378215 1.902378 -2.139642
v -1.325182 1.902378 -2.086609
v -1.007627 1.520000 -2.351130
v -1.061304 1.467622 -2.350486
v -1.114337 1.467622 -2.403519
v -1.113693 1.520000 -2.457196
v -1.060017 1.572378 -2.457840
v -1.006984 1.572378 -2.404807
v -2.281477 2.752739 -1.324768
v -2.344607 2.743937 -1.335613
v -2.372777 2.729694 -1.279186
v -2.327059 2.729694 -1.233467
v -2.270632 2.743937 -1.261638
v -2.316832 2.962739 -1.289412
v -2.379962 2.953937 -1.300258
v -2.408133 2.939694 -1.243831
v -2.362414 2.939694 -1.198112
v -2.305987 2.953937 -1.226283
v -2.140056 2.752739 -1.183346
v -2.203185 2.743937 -1.194192
v -2.231356 2.729694 -1.137765
v -2.185637 2.729694 -1.092046
v -2.129210 2.743937 -1.120217
v -2.175411 2.962739 -1.147991
v -2.238541 2.953937 -1.158836
v -2.266711 2.939694 -1.102409
v -2.220993 2.939694 -1.056690
v -2.164566 2.953937 -1.084861
f 749 750 751
f 749 751 752
f 749 752 753
f 749 753 754
f 749 754 755
f 749 755 756
f 749 756 757
f 749 757 750
f 750 758 759
f 750 759 751
f 751 759 760
f 751 760 752
f 752 760 761
f 752 761 753
f 753 761 762
f 753 762 754
f 754 762 763
f 754 763 755
f 755 763 764
f 755 764 756
f 756 764 765
f 756 765 757
f 757 765 758
f 757 758 750
f 758 766 767
f 758 767 759
f 759 767 768
f 759 768 760
f 760 768 769
f 760 769 761
f 761 769 770
f 761 770 762
f 762 770 771
f 762 771 763
f 763 771 772
f 763 772 764
f 764 772 773
f 764 773 765
f 765 773 766
f 765 766 758
f 774 767 766
f 774 768 767
f 774 769 768
f 774 770 769
f 774 771 770
f 774 772 771
f 774 773 772
f 774 766 773
f 775 776 783 782
f 776 777 784 783
f 777 778 785 784
f 778 779 786 785
f 779 780 787 786
f 780 781 788 787
f 781 775 782 788
f 789 790 791
f 789 791 792
f 789 792 793
f 789 793 794
f 789 794 795
f 789 795 796
f 789 796 790
f 790 797 798
f 790 798 791
f 791 798 799
f 791 799 792
f 792 799 800
f 792 800 793
f 793 800 801
f 793 801 794
f 794 801 802
f 794 802 795
f 795 802 803
f 795 803 796
f 796 803 797
f 796 797 790
f 804 798 797
f 804 799 798
f 804 800 799
f 804 801 800
f 804 802 801
f 804 803 802
f 804 797 803
f 805 806 807
f 805 807 808
f 805 808 809
f 805 809 810
f 805 810 811
f 805 811 812
f 805 812 806
f 806 813 814
f 806 814 807
f 807 814 815
f 807 815 808
f 808 815 816
f 808 816 809
f 809 816 817
f 809 817 810
f 810 817 818
f 810 818 811
f 811 818 819
f 811 819 812
f 812 819 813
f 812 813 806
f 820 814 813
f 820 815 814
f 820 816 815
f 820 817 816
f 820 818 817
f 820 819 818
f 820 813 819
f 821 822 828 827
f 822 823 829 828
f 823 824 830 829
f 824 825 831 830
f 825 826 832 831
f 826 821 827 832
f 833 834 840 839
f 834 835 841 840
f 835 836 842 841
f 836 837 843 842
f 837 838 844 843
f 838 833 839 844
f 845 846 852 851
f 846 847 853 852
f 847 848 854 853
f 848 849 855 854
f 849 850 856 855
f 850 845 851 856
f 857 858 864 863
f 858 859 865 864
f 859 860 866 865
f 860 861 867 866
f 861 862 868 867
f 862 857 863 868
f 869 870 876 875
f 870 871 877 876
f 871 872 878 877
f 872 873 879 878
f 873 874 880 879
f 874 869 875 880
f 881 882 887 886
f 882 883 888 887
f 883 884 889 888
f 884 885 890 889
f 885 881 886 890
f 891 892 897 896
f 892 893 898 897
f 893 894 899 898
f 894 895 900 899
f 895 891 896 900
o Horse_Pole_04
usemtl Gold
v -1.687412 0.575000 -1.732412
v -1.704355 0.575000 -1.767594
v -1.742425 0.575000 -1.776283
v -1.772955 0.575000 -1.751936
v -1.772955 0.575000 -1.712887
v -1.742425 0.575000 -1.688540
v -1.704355 0.575000 -1.697229
v -1.687412 4.525000 -1.732412
v -1.704355 4.525000 -1.767594
v -1.742425 4.525000 -1.776283
v -1.772955 4.525000 -1.751936
v -1.772955 4.525000 -1.712887
v -1.742425 4.525000 -1.688540
v -1.704355 4.525000 -1.697229
v -1.732412 0.575000 -1.732412
v -1.732412 4.525000 -1.732412
f 901 902 909 908
f 915 902 901
f 916 908 909
f 902 903 910 909
f 915 903 902
f 916 909 910
f 903 904 911 910
f 915 904 903
f 916 910 911
f 904 905 912 911
f 915 905 904
f 916 911 912
f 905 906 913 912
f 915 906 905
f 916 912 913
f 906 907 914 913
f 915 907 906
f 916 913 914
f 907 901 908 914
f 915 901 907
f 916 914 908
o Horse_05
usemtl Horse_White
v -2.450000 2.140000 -0.000000
v -2.450000 2.040416 0.438406
v -2.325000 2.040416 0.310000
v -2.273223 2.040416 -0.000000
v -2.325000 2.040416 -0.310000
v -2.450000 2.040416 -0.438406
v -2.575000 2.040416 -0.310000
v -2.626777 2.040416 -0.000000
v -2.575000 2.040416 0.310000
v -2.450000 1.800000 0.620000
v -2.273223 1.800000 0.438406
v -2.200000 1.800000 -0.000000
v -2.273223 1.800000 -0.438406
v -2.450000 1.800000 -0.620000
v -2.626777 1.800000 -0.438406
v -2.700000 1.800000 -0.000000
v -2.626777 1.800000 0.438406
v -2.450000 1.559584 0.438406
v -2.325000 1.559584 0.310000
v -2.273223 1.559584 -0.000000
v -2.325000 1.559584 -0.310000
v -2.450000 1.559584 -0.438406
v -2.575000 1.559584 -0.310000
v -2.626777 1.559584 -0.000000
v -2.575000 1.559584 0.310000
v -2.450000 1.460000 -0.000000
v -2.640000 1.960000 0.350000
v -2.568463 1.884583 0.477980
v -2.407721 1.865957 0.509588
v -2.278816 1.918147 0.421023
v -2.278816 2.001853 0.278977
v -2.407721 2.054043 0.190412
v -2.568463 2.035417 0.222020
v -2.640000 2.520000 0.680000
v -2.568463 2.444583 0.807980
v -2.407721 2.425957 0.839588
v -2.278816 2.478147 0.751023
v -2.278816 2.561853 0.608977
v -2.407721 2.614043 0.520412
v -2.568463 2.595417 0.552020
v -2.450000 2.820000 0.820000
v -2.450000 2.700000 1.114449
v -2.314583 2.700000 1.003586
v -2.281138 2.700000 0.754479
v -2.374849 2.700000 0.554711
v -2.525151 2.700000 0.554711
v -2.618862 2.700000 0.754479
v -2.585417 2.700000 1.003586
v -2.450000 2.460000 1.114449
v -2.314583 2.460000 1.003586
v -2.281138 2.460000 0.754479
v -2.374849 2.460000 0.554711
v -2.525151 2.460000 0.554711
v -2.618862 2.460000 0.754479
v -2.585417 2.460000 1.003586
v -2.450000 2.340000 0.820000
v -2.450000 2.640000 1.080000
v -2.450000 2.570000 1.279186
v -2.341666 2.570000 1.204190
v -2.314910 2.570000 1.035677
v -2.389879 2.570000 0.900540
v -2.510121 2.570000 0.900540
v -2.585090 2.570000 1.035677
v -2.558334 2.570000 1.204190
v -2.450000 2.430000 1.279186
v -2.341666 2.430000 1.204190
v -2.314910 2.430000 1.035677
v -2.389879 2.430000 0.900540
v -2.510121 2.430000 0.900540
v -2.585090 2.430000 1.035677
v -2.558334 2.430000 1.204190
v -2.450000 2.360000 1.080000
v -2.590000 1.631578 -0.275899
v -2.654952 1.625789 -0.312950
v -2.654952 1.614211 -0.387050
v -2.590000 1.608422 -0.424101
v -2.525048 1.614211 -0.387050
v -2.525048 1.625789 -0.312950
v -2.590000 0.991578 -0.175899
v -2.654952 0.985789 -0.212950
v -2.654952 0.974211 -0.287050
v -2.590000 0.968422 -0.324101
v -2.525048 0.974211 -0.287050
v -2.525048 0.985789 -0.212950
v -2.590000 1.631578 0.414101
v -2.654952 1.625789 0.377050
v -2.654952 1.614211 0.302950
v -2.590000 1.608422 0.265899
v -2.525048 1.614211 0.302950
v -2.525048 1.625789 0.377050
v -2.590000 0.991578 0.514101
v -2.654952 0.985789 0.477050
v -2.654952 0.974211 0.402950
v -2.590000 0.968422 0.365899
v -2.525048 0.974211 0.402950
v -2.525048 0.985789 0.477050
v -2.310000 1.631578 -0.275899
v -2.374952 1.625789 -0.312950
v -2.374952 1.614211 -0.387050
v -2.310000 1.608422 -0.424101
v -2.245048 1.614211 -0.387050
v -2.245048 1.625789 -0.312950
v -2.310000 0.991578 -0.175899
v -2.374952 0.985789 -0.212950
v -2.374952 0.974211 -0.287050
v -2.310000 0.968422 -0.324101
v -2.245048 0.974211 -0.287050
v -2.245048 0.985789 -0.212950
v -2.310000 1.631578 0.414101
v -2.374952 1.625789 0.377050
v -2.374952 1.614211 0.302950
v -2.310000 1.608422 0.265899
v -2.245048 1.614211 0.302950
v -2.245048 1.625789 0.377050
v -2.310000 0.991578 0.514101
v -2.374952 0.985789 0.477050
v -2.374952 0.974211 0.402950
v -2.310000 0.968422 0.365899
v -2.245048 0.974211 0.402950
v -2.245048 0.985789 0.477050
v -2.375000 1.850000 -0.500000
v -2.412500 1.797622 -0.461590
v -2.487500 1.797622 -0.461590
v -2.525000 1.850000 -0.500000
v -2.487500 1.902378 -0.538410
v -2.412500 1.902378 -0.538410
v -2.375000 1.520000 -0.950000
v -2.412500 1.467622 -0.911590
v -2.487500 1.467622 -0.911590
v -2.525000 1.520000 -0.950000
v -2.487500 1.572378 -0.988410
v -2.412500 1.572378 -0.988410
v -2.550000 2.752739 0.676496
v -2.602308 2.743937 0.713466
v -2.582328 2.729694 0.773286
v -2.517672 2.729694 0.773286
v -2.497692 2.743937 0.713466
v -2.550000 2.962739 0.726496
v -2.602308 2.953937 0.763466
v -2.582328 2.939694 0.823286
v -2.517672 2.939694 0.823286
v -2.497692 2.953937 0.763466
v -2.350000 2.752739 0.676496
v -2.402308 2.743937 0.713466
v -2.382328 2.729694 0.773286
v -2.317672 2.729694 0.773286
v -2.297692 2.743937 0.713466
v -2.350000 2.962739 0.726496
v -2.402308 2.953937 0.763466
v -2.382328 2.939694 0.823286
v -2.317672 2.939694 0.823286
v -2.297692 2.953937 0.763466
f 917 918 919
f 917 919 920
f 917 920 921
f 917 921 922
f 917 922 923
f 917 923 924
f 917 924 925
f 917 925 918
f 918 926 927
f 918 927 919
f 919 927 928
f 919 928 920
f 920 928 929
f 920 929 921
f 921 929 930
f 921 930 922
f 922 930 931
f 922 931 923
f 923 931 932
f 923 932 924
f 924 932 933
f 924 933 925
f 925 933 926
f 925 926 918
f 926 934 935
f 926 935 927
f 927 935 936
f 927 936 928
f 928 936 937
f 928 937 929
f 929 937 938
f 929 938 930
f 930 938 939
f 930 939 931
f 931 939 940
f 931 940 932
f 932 940 941
f 932 941 933
f 933 941 934
f 933 934 926
f 942 935 934
f 942 936 935
f 942 937 936
f 942 938 937
f 942 939 938
f 942 940 939
f 942 941 940
f 942 934 941
f 943 944 951 950
f 944 945 952 951
f 945 946 953 952
f 946 947 954 953
f 947 948 955 954
f 948 949 956 955
f 949 943 950 956
f 957 958 959
f 957 959 960
f 957 960 961
f 957 961 962
f 957 962 963
f 957 963 964
f 957 964 958
f 958 965 966
f 958 966 959
f 959 966 967
f 959 967 960
f 960 967 968
f 960 968 961
f 961 968 969
f 961 969 962
f 962 969 970
f 962 970 963
f 963 970 971
f 963 971 964
f 964 971 965
f 964 965 958
f 972 966 965
f 972 967 966
f 972 968 967
f 972 969 968
f 972 970 969
f 972 971 970
f 972 965 971
f 973 974 975
f 973 975 976
f 973 976 977
f 973 977 978
f 973 978 979
f 973 979 980
f 973 980 974
f 974 981 982
f 974 982 975
f 975 982 983
f 975 983 976
f 976 983 984
f 976 984 977
f 977 984 985
f 977 985 978
f 978 985 986
f 978 986 979
f 979 986 987
f 979 987 980
f 980 987 981
f 980 981 974
f 988 982 981
f 988 983 982
f 988 984 983
f 988 985 984
f 988 986 985
f 988 987 986
f 988 981 987
f 989 990 996 995
f 990 991 997 996
f 991 992 998 997
f 992 993 999 998
f 993 994 1000 999
f 994 989 995 1000
f 1001 1002 1008 1007
f 1002 1003 1009 1008
f 1003 1004 1010 1009
f 1004 1005 1011 1010
f 1005 1006 1012 1011
f 1006 1001 1007 1012
f 1013 1014 1020 1019
f 1014 1015 1021 1020
f 1015 1016 1022 1021
f 1016 1017 1023 1022
f 1017 1018 1024 1023
f 1018 1013 1019 1024
f 1025 1026 1032 1031
f 1026 1027 1033 1032
f 1027 1028 1034 1033
f 1028 1029 1035 1034
f 1029 1030 1036 1035
f 1030 1025 1031 1036
f 1037 1038 1044 1043
f 1038 1039 1045 1044
f 1039 1040 1046 1045
f 1040 1041 1047 1046
f 1041 1042 1048 1047
f 1042 1037 1043 1048
f 1049 1050 1055 1054
f 1050 1051 1056 1055
f 1051 1052 1057 1056
f 1052 1053 1058 1057
f 1053 1049 1054 1058
f 1059 1060 1065 1064
f 1060 1061 1066 1065
f 1061 1062 1067 1066
f 1062 1063 1068 1067
f 1063 1059 1064 1068
o Horse_Pole_05
usemtl Gold
v -2.405000 0.575000 -0.000000
v -2.421943 0.575000 -0.035182
v -2.460013 0.575000 -0.043872
v -2.490544 0.575000 -0.019525
v -2.490544 0.575000 0.019525
v -2.460013 0.575000 0.043872
v -2.421943 0.575000 0.035182
v -2.405000 4.525000 -0.000000
v -2.421943 4.525000 -0.035182
v -2.460013 4.525000 -0.043872
v -2.490544 4.525000 -0.019525
v -2.490544 4.525000 0.019525
v -2.460013 4.525000 0.043872
v -2.421943 4.525000 0.035182
v -2.450000 0.575000 -0.000000
v -2.450000 4.525000 -0.000000
f 1069 1070 1077 1076
f 1083 1070 1069
f 1084 1076 1077
f 1070 1071 1078 1077
f 1083 1071 1070
f 1084 1077 1078
f 1071 1072 1079 1078
f 1083 1072 1071
f 1084 1078 1079
f 1072 1073 1080 1079
f 1083 1073 1072
f 1084 1079 1080
f 1073 1074 1081 1080
f 1083 1074 1073
f 1084 1080 1081
f 1074 1075 1082 1081
f 1083 1075 1074
f 1084 1081 1082
f 1075 1069 1076 1082
f 1083 1069 1075
f 1084 1082 1076
o Horse_06
usemtl Horse_Tan
v -1.732412 2.140000 1.732412
v -1.422412 2.040416 2.042412
v -1.424820 2.040416 1.863226
v -1.607412 2.040416 1.607412
v -1.863226 2.040416 1.424820
v -2.042412 2.040416 1.422412
v -2.040003 2.040416 1.601597
v -1.857412 2.040416 1.857412
v -1.601597 2.040416 2.040003
v -1.294005 1.800000 2.170818
v -1.297412 1.800000 1.917412
v -1.555635 1.800000 1.555635
v -1.917412 1.800000 1.297412
v -2.170818 1.800000 1.294005
v -2.167412 1.800000 1.547412
v -1.909188 1.800000 1.909188
v -1.547412 1.800000 2.167412
v -1.422412 1.559584 2.042412
v -1.424820 1.559584 1.863226
v -1.607412 1.559584 1.607412
v -1.863226 1.559584 1.424820
v -2.042412 1.559584 1.422412
v -2.040003 1.559584 1.601597
v -1.857412 1.559584 1.857412
v -1.601597 1.559584 2.040003
v -1.732412 1.460000 1.732412
v -1.619275 1.960000 2.114249
v -1.478195 1.884583 2.154160
v -1.342183 1.865957 2.062849
v -1.313658 1.918147 1.909075
v -1.414100 2.001853 1.808632
v -1.567874 2.054043 1.837157
v -1.659186 2.035417 1.973170
v -1.385929 2.520000 2.347595
v -1.244850 2.444583 2.387506
v -1.108837 2.425957 2.296194
v -1.080312 2.478147 2.142420
v -1.180755 2.561853 2.041978
v -1.334529 2.614043 2.070503
v -1.425840 2.595417 2.206515
v -1.152584 2.820000 2.312239
v -0.944377 2.700000 2.520446
v -0.927015 2.700000 2.346299
v -1.079511 2.700000 2.146505
v -1.287032 2.700000 2.071512
v -1.393311 2.700000 2.177791
v -1.318318 2.700000 2.385313
v -1.118524 2.700000 2.537808
v -0.944377 2.460000 2.520446
v -0.927015 2.460000 2.346299
v -1.079511 2.460000 2.146505
v -1.287032 2.460000 2.071512
v -1.393311 2.460000 2.177791
v -1.318318 2.460000 2.385313
v -1.118524 2.460000 2.537808
v -1.152584 2.340000 2.312239
v -0.968736 2.640000 2.496087
v -0.827891 2.570000 2.636933
v -0.804317 2.570000 2.507299
v -0.904554 2.570000 2.369223
v -1.053122 2.570000 2.326678
v -1.138146 2.570000 2.411701
v -1.095600 2.570000 2.560269
v -0.957524 2.570000 2.660506
v -0.827891 2.430000 2.636933
v -0.804317 2.430000 2.507299
v -0.904554 2.430000 2.369223
v -1.053122 2.430000 2.326678
v -1.138146 2.430000 2.411701
v -1.095600 2.430000 2.560269
v -0.957524 2.430000 2.660506
v -0.968736 2.360000 2.496087
v -2.026497 1.631578 1.636316
v -2.098623 1.625789 1.656046
v -2.151020 1.614211 1.603648
v -2.131291 1.608422 1.531522
v -2.059165 1.614211 1.511793
v -2.006767 1.625789 1.564190
v -1.955786 0.991578 1.707027
v -2.027913 0.985789 1.726756
v -2.080310 0.974211 1.674359
v -2.060581 0.968422 1.602233
v -1.988454 0.974211 1.582503
v -1.936057 0.985789 1.634901
v -1.538593 1.631578 2.124220
v -1.610720 1.625789 2.143949
v -1.663117 1.614211 2.091552
v -1.643388 1.608422 2.019426
v -1.571261 1.614211 1.999696
v -1.518864 1.625789 2.052094
v -1.467882 0.991578 2.194931
v -1.540009 0.985789 2.214660
v -1.592406 0.974211 2.162263
v -1.572677 0.968422 2.090136
v -1.500550 0.974211 2.070407
v -1.448153 0.985789 2.122804
v -1.828507 1.631578 1.438327
v -1.900633 1.625789 1.458056
v -1.953031 1.614211 1.405659
v -1.933301 1.608422 1.333532
v -1.861175 1.614211 1.313803
v -1.808777 1.625789 1.366200
v -1.757796 0.991578 1.509037
v -1.829923 0.985789 1.528767
v -1.882320 0.974211 1.476369
v -1.862591 0.968422 1.404243
v -1.790464 0.974211 1.384513
v -1.738067 0.985789 1.436911
v -1.340603 1.631578 1.926230
v -1.412730 1.625789 1.945960
v -1.465127 1.614211 1.893562
v -1.445398 1.608422 1.821436
v -1.373271 1.614211 1.801706
v -1.320874 1.625789 1.854104
v -1.269892 0.991578 1.996941
v -1.342019 0.985789 2.016670
v -1.394416 0.974211 1.964273
v -1.374687 0.968422 1.892146
v -1.302560 0.974211 1.872417
v -1.250163 0.985789 1.924814
v -2.032932 1.850000 1.325825
v -2.032288 1.797622 1.379502
v -2.085321 1.797622 1.432535
v -2.138998 1.850000 1.431891
v -2.139642 1.902378 1.378215
v -2.086609 1.902378 1.325182
v -2.351130 1.520000 1.007627
v -2.350486 1.467622 1.061304
v -2.403519 1.467622 1.114337
v -2.457196 1.520000 1.113693
v -2.457840 1.572378 1.060017
v -2.404807 1.572378 1.006984
v -1.324768 2.752739 2.281477
v -1.335613 2.743937 2.344607
v -1.279186 2.729694 2.372777
v -1.233467 2.729694 2.327059
v -1.261638 2.743937 2.270632
v -1.289412 2.962739 2.316832
v -1.300258 2.953937 2.379962
v -1.243831 2.939694 2.408133
v -1.198112 2.939694 2.362414
v -1.226283 2.953937 2.305987
v -1.183346 2.752739 2.140056
v -1.194192 2.743937 2.203185
v -1.137765 2.729694 2.231356
v -1.092046 2.729694 2.185637
v -1.120217 2.743937 2.129210
v -1.147991 2.962739 2.175411
v -1.158836 2.953937 2.238541
v -1.102409 2.939694 2.266711
v -1.056690 2.939694 2.220993
v -1.084861 2.953937 2.164566
f 1085 1086 1087
f 1085 1087 1088
f 1085 1088 1089
f 1085 1089 1090
f 1085 1090 1091
f 1085 1091 1092
f 1085 1092 1093
f 1085 1093 1086
f 1086 1094 1095
f 1086 1095 1087
f 1087 1095 1096
f 1087 1096 1088
f 1088 1096 1097
f 1088 1097 1089
f 1089 1097 1098
f 1089 1098 1090
f 1090 1098 1099
f 1090 1099 1091
f 1091 1099 1100
f 1091 1100 1092
f 1092 1100 1101
f 1092 1101 1093
f 1093 1101 1094
f 1093 1094 1086
f 1094 1102 1103
f 1094 1103 1095
f 1095 1103 1104
f 1095 1104 1096
f 1096 1104 1105
f 1096 1105 1097
f 1097 1105 1106
f 1097 1106 1098
f 1098 1106 1107
f 1098 1107 1099
f 1099 1107 1108
f 1099 1108 1100
f 1100 1108 1109
f 1100 1109 1101
f 1101 1109 1102
f 1101 1102 1094
f 1110 1103 1102
f 1110 1104 1103
f 1110 1105 1104
f 1110 1106 1105
f 1110 1107 1106
f 1110 1108 1107
f 1110 1109 1108
f 1110 1102 1109
f 1111 1112 1119 1118
f 1112 1113 1120 1119
f 1113 1114 1121 1120
f 1114 1115 1122 1121
f 1115 1116 1123 1122
f 1116 1117 1124 1123
f 1117 1111 1118 1124
f 1125 1126 1127
f 1125 1127 1128
f 1125 1128 1129
f 1125 1129 1130
f 1125 1130 1131
f 1125 1131 1132
f 1125 1132 1126
f 1126 1133 1134
f 1126 1134 1127
f 1127 1134 1135
f 1127 1135 1128
f 1128 1135 1136
f 1128 1136 1129
f 1129 1136 1137
f 1129 1137 1130
f 1130 1137 1138
f 1130 1138 1131
f 1131 1138 1139
f 1131 1139 1132
f 1132 1139 1133
f 1132 1133 1126
f 1140 1134 1133
f 1140 1135 1134
f 1140 1136 1135
f 1140 1137 1136
f 1140 1138 1137
f 1140 1139 1138
f 1140 1133 1139
f 1141 1142 1143
f 1141 1143 1144
f 1141 1144 1145
f 1141 1145 1146
f 1141 1146 1147
f 1141 1147 1148
f 1141 1148 1142
f 1142 1149 1150
f 1142 1150 1143
f 1143 1150 1151
f 1143 1151 1144
f 1144 1151 1152
f 1144 1152 1145
f 1145 1152 1153
f 1145 1153 1146
f 1146 1153 1154
f 1146 1154 1147
f 1147 1154 1155
f 1147 1155 1148
f 1148 1155 1149
f 1148 1149 1142
f 1156 1150 1149
f 1156 1151 1150
f 1156 1152 1151
f 1156 1153 1152
f 1156 1154 1153
f 1156 1155 1154
f 1156 1149 1155
f 1157 1158 1164 1163
f 1158 1159 1165 1164
f 1159 1160 1166 1165
f 1160 1161 1167 1166
f 1161 1162 1168 1167
f 1162 1157 1163 1168
f 1169 1170 1176 1175
f 1170 1171 1177 1176
f 1171 1172 1178 1177
f 1172 1173 1179 1178
f 1173 1174 1180 1179
f 1174 1169 1175 1180
f 1181 1182 1188 1187
f 1182 1183 1189 1188
f 1183 1184 1190 1189
f 1184 1185 1191 1190
f 1185 1186 1192 1191
f 1186 1181 1187 1192
f 1193 1194 1200 1199
f 1194 1195 1201 1200
f 1195 1196 1202 1201
f 1196 1197 1203 1202
f 1197 1198 1204 1203
f 1198 1193 1199 1204
f 1205 1206 1212 1211
f 1206 1207 1213 1212
f 1207 1208 1214 1213
f 1208 1209 1215 1214
f 1209 1210 1216 1215
f 1210 1205 1211 1216
f 1217 1218 1223 1222
f 1218 1219 1224 1223
f 1219 1220 1225 1224
f 1220 1221 1226 1225
f 1221 1217 1222 1226
f 1227 1228 1233 1232
f 1228 1229 1234 1233
f 1229 1230 1235 1234
f 1230 1231 1236 1235
f 1231 1227 1232 1236
o Horse_Pole_06
usemtl Gold
v -1.687412 0.575000 1.732412
v -1.704355 0.575000 1.697229
v -1.742425 0.575000 1.688540
v -1.772955 0.575000 1.712887
v -1.772955 0.575000 1.751936
v -1.742425 0.575000 1.776283
v -1.704355 0.575000 1.767594
v -1.687412 4.525000 1.732412
v -1.704355 4.525000 1.697229
v -1.742425 4.525000 1.688540
v -1.772955 4.525000 1.712887
v -1.772955 4.525000 1.751936
v -1.742425 4.525000 1.776283
v -1.704355 4.525000 1.767594
v -1.732412 0.575000 1.732412
v -1.732412 4.525000 1.732412
f 1237 1238 1245 1244
f 1251 1238 1237
f 1252 1244 1245
f 1238 1239 1246 1245
f 1251 1239 1238
f 1252 1245 1246
f 1239 1240 1247 1246
f 1251 1240 1239
f 1252 1246 1247
f 1240 1241 1248 1247
f 1251 1241 1240
f 1252 1247 1248
f 1241 1242 1249 1248
f 1251 1242 1241
f 1252 1248 1249
f 1242 1243 1250 1249
f 1251 1243 1242
f 1252 1249 1250
f 1243 1237 1244 1250
f 1251 1237 1243
f 1252 1250 1244
o Horse_07
usemtl Horse_White
v -0.000000 2.140000 2.450000
v 0.438406 2.040416 2.450000
v 0.310000 2.040416 2.325000
v -0.000000 2.040416 2.273223
v -0.310000 2.040416 2.325000
v -0.438406 2.040416 2.450000
v -0.310000 2.040416 2.575000
v -0.000000 2.040416 2.626777
v 0.310000 2.040416 2.575000
v 0.620000 1.800000 2.450000
v 0.438406 1.800000 2.273223
v -0.000000 1.800000 2.200000
v -0.438406 1.800000 2.273223
v -0.620000 1.800000 2.450000
v -0.438406 1.800000 2.626777
v -0.000000 1.800000 2.700000
v 0.438406 1.800000 2.626777
v 0.438406 1.559584 2.450000
v 0.310000 1.559584 2.325000
v -0.000000 1.559584 2.273223
v -0.310000 1.559584 2.325000
v -0.438406 1.559584 2.450000
v -0.310000 1.559584 2.575000
v -0.000000 1.559584 2.626777
v 0.310000 1.559584 2.575000
v -0.000000 1.460000 2.450000
v 0.350000 1.960000 2.640000
v 0.477980 1.884583 2.568463
v 0.509588 1.865957 2.407721
v 0.421023 1.918147 2.278816
v 0.278977 2.001853 2.278816
v 0.190412 2.054043 2.407721
v 0.222020 2.035417 2.568463
v 0.680000 2.520000 2.640000
v 0.807980 2.444583 2.568463
v 0.839588 2.425957 2.407721
v 0.751023 2.478147 2.278816
v 0.608977 2.561853 2.278816
v 0.520412 2.614043 2.407721
v 0.552020 2.595417 2.568463
v 0.820000 2.820000 2.450000
v 1.114449 2.700000 2.450000
v 1.003586 2.700000 2.314583
v 0.754479 2.700000 2.281138
v 0.554711 2.700000 2.374849
v 0.554711 2.700000 2.525151
v 0.754479 2.700000 2.618862
v 1.003586 2.700000 2.585417
v 1.114449 2.460000 2.450000
v 1.003586 2.460000 2.314583
v 0.754479 2.460000 2.281138
v 0.554711 2.460000 2.374849
v 0.554711 2.460000 2.525151
v 0.754479 2.460000 2.618862
v 1.003586 2.460000 2.585417
v 0.820000 2.340000 2.450000
v 1.080000 2.640000 2.450000
v 1.279186 2.570000 2.450000
v 1.204190 2.570000 2.341666
v 1.035677 2.570000 2.314910
v 0.900540 2.570000 2.389879
v 0.900540 2.570000 2.510121
v 1.035677 2.570000 2.585090
v 1.204190 2.570000 2.558334
v 1.279186 2.430000 2.450000
v 1.204190 2.430000 2.341666
v 1.035677 2.430000 2.314910
v 0.900540 2.430000 2.389879
v 0.900540 2.430000 2.510121
v 1.035677 2.430000 2.585090
v 1.204190 2.430000 2.558334
v 1.080000 2.360000 2.450000
v -0.275899 1.631578 2.590000
v -0.312950 1.625789 2.654952
v -0.387050 1.614211 2.654952
v -0.424101 1.608422 2.590000
v -0.387050 1.614211 2.525048
v -0.312950 1.625789 2.525048
v -0.175899 0.991578 2.590000
v -0.212950 0.985789 2.654952
v -0.287050 0.974211 2.654952
v -0.324101 0.968422 2.590000
v -0.287050 0.974211 2.525048
v -0.212950 0.985789 2.525048
v 0.414101 1.631578 2.590000
v 0.377050 1.625789 2.654952
v 0.302950 1.614211 2.654952
v 0.265899 1.608422 2.590000
v 0.302950 1.614211 2.525048
v 0.377050 1.625789 2.525048
v 0.514101 0.991578 2.590000
v 0.477050 0.985789 2.654952
v 0.402950 0.974211 2.654952
v 0.365899 0.968422 2.590000
v 0.402950 0.974211 2.525048
v 0.477050 0.985789 2.525048
v -0.275899 1.631578 2.310000
v -0.312950 1.625789 2.374952
v -0.387050 1.614211 2.374952
v -0.424101 1.608422 2.310000
v -0.387050 1.614211 2.245048
v -0.312950 1.625789 2.245048
v -0.175899 0.991578 2.310000
v -0.212950 0.985789 2.374952
v -0.287050 0.974211 2.374952
v -0.324101 0.968422 2.310000
v -0.287050 0.974211 2.245048
v -0.212950 0.985789 2.245048
v 0.414101 1.631578 2.310000
v 0.377050 1.625789 2.374952
v 0.302950 1.614211 2.374952
v 0.265899 1.608422 2.310000
v 0.302950 1.614211 2.245048
v 0.377050 1.625789 2.245048
v 0.514101 0.991578 2.310000
v 0.477050 0.985789 2.374952
v 0.402950 0.974211 2.374952
v 0.365899 0.968422 2.310000
v 0.402950 0.974211 2.245048
v 0.477050 0.985789 2.245048
v -0.500000 1.850000 2.375000
v -0.461590 1.797622 2.412500
v -0.461590 1.797622 2.487500
v -0.500000 1.850000 2.525000
v -0.538410 1.902378 2.487500
v -0.538410 1.902378 2.412500
v -0.950000 1.520000 2.375000
v -0.911590 1.467622 2.412500
v -0.911590 1.467622 2.487500
v -0.950000 1.520000 2.525000
v -0.988410 1.572378 2.487500
v -0.988410 1.572378 2.412500
v 0.676496 2.752739 2.550000
v 0.713466 2.743937 2.602308
v 0.773286 2.729694 2.582328
v 0.773286 2.729694 2.517672
v 0.713466 2.743937 2.497692
v 0.726496 2.962739 2.550000
v 0.763466 2.953937 2.602308
v 0.823286 2.939694 2.582328
v 0.823286 2.939694 2.517672
v 0.763466 2.953937 2.497692
v 0.676496 2.752739 2.350000
v 0.713466 2.743937 2.402308
v 0.773286 2.729694 2.382328
v 0.773286 2.729694 2.317672
v 0.713466 2.743937 2.297692
v 0.726496 2.962739 2.350000
v 0.763466 2.953937 2.402308
v 0.823286 2.939694 2.382328
v 0.823286 2.939694 2.317672
v 0.763466 2.953937 2.297692
f 1253 1254 1255
f 1253 1255 1256
f 1253 1256 1257
f 1253 1257 1258
f 1253 1258 1259
f 1253 1259 1260
f 1253 1260 1261
f 1253 1261 1254
f 1254 1262 1263
f 1254 1263 1255
f 1255 1263 1264
f 1255 1264 1256
f 1256 1264 1265
f 1256 1265 1257
f 1257 1265 1266
f 1257 1266 1258
f 1258 1266 1267
f 1258 1267 1259
f 1259 1267 1268
f 1259 1268 1260
f 1260 1268 1269
f 1260 1269 1261
f 1261 1269 1262
f 1261 1262 1254
f 1262 1270 1271
f 1262 1271 1263
f 1263 1271 1272
f 1263 1272 1264
f 1264 1272 1273
f 1264 1273 1265
f 1265 1273 1274
f 1265 1274 1266
f 1266 1274 1275
f 1266 1275 1267
f 1267 1275 1276
f 1267 1276 1268
f 1268 1276 1277
f 1268 1277 1269
f 1269 1277 1270
f 1269 1270 1262
f 1278 1271 1270
f 1278 1272 1271
f 1278 1273 1272
f 1278 1274 1273
f 1278 1275 1274
f 1278 1276 1275
f 1278 1277 1276
f 1278 1270 1277
f 1279 1280 1287 1286
f 1280 1281 1288 1287
f 1281 1282 1289 1288
f 1282 1283 1290 1289
f 1283 1284 1291 1290
f 1284 1285 1292 1291
f 1285 1279 1286 1292
f 1293 1294 1295
f 1293 1295 1296
f 1293 1296 1297
f 1293 1297 1298
f 1293 1298 1299
f 1293 1299 1300
f 1293 1300 1294
f 1294 1301 1302
f 1294 1302 1295
f 1295 1302 1303
f 1295 1303 1296
f 1296 1303 1304
f 1296 1304 1297
f 1297 1304 1305
f 1297 1305 1298
f 1298 1305 1306
f 1298 1306 1299
f 1299 1306 1307
f 1299 1307 1300
f 1300 1307 1301
f 1300 1301 1294
f 1308 1302 1301
f 1308 1303 1302
f 1308 1304 1303
f 1308 1305 1304
f 1308 1306 1305
f 1308 1307 1306
f 1308 1301 1307
f 1309 1310 1311
f 1309 1311 1312
f 1309 1312 1313
f 1309 1313 1314
f 1309 1314 1315
f 1309 1315 1316
f 1309 1316 1310
f 1310 1317 1318
f 1310 1318 1311
f 1311 1318 1319
f 1311 1319 1312
f 1312 1319 1320
f 1312 1320 1313
f 1313 1320 1321
f 1313 1321 1314
f 1314 1321 1322
f 1314 1322 1315
f 1315 1322 1323
f 1315 1323 1316
f 1316 1323 1317
f 1316 1317 1310
f 1324 1318 1317
f 1324 1319 1318
f 1324 1320 1319
f 1324 1321 1320
f 1324 1322 1321
f 1324 1323 1322
f 1324 1317 1323
f 1325 1326 1332 1331
f 1326 1327 1333 1332
f 1327 1328 1334 1333
f 1328 1329 1335 1334
f 1329 1330 1336 1335
f 1330 1325 1331 1336
f 1337 1338 1344 1343
f 1338 1339 1345 1344
f 1339 1340 1346 1345
f 1340 1341 1347 1346
f 1341 1342 1348 1347
f 1342 1337 1343 1348
f 1349 1350 1356 1355
f 1350 1351 1357 1356
f 1351 1352 1358 1357
f 1352 1353 1359 1358
f 1353 1354 1360 1359
f 1354 1349 1355 1360
f 1361 1362 1368 1367
f 1362 1363 1369 1368
f 1363 1364 1370 1369
f 1364 1365 1371 1370
f 1365 1366 1372 1371
f 1366 1361 1367 1372
f 1373 1374 1380 1379
f 1374 1375 1381 1380
f 1375 1376 1382 1381
f 1376 1377 1383 1382
f 1377 1378 1384 1383
f 1378 1373 1379 1384
f 1385 1386 1391 1390
f 1386 1387 1392 1391
f 1387 1388 1393 1392
f 1388 1389 1394 1393
f 1389 1385 1390 1394
f 1395 1396 1401 1400
f 1396 1397 1402 1401
f 1397 1398 1403 1402
f 1398 1399 1404 1403
f 1399 1395 1400 1404
o Horse_Pole_07
usemtl Gold
v 0.045000 0.575000 2.450000
v 0.028057 0.575000 2.414818
v -0.010013 0.575000 2.406128
v -0.040544 0.575000 2.430475
v -0.040544 0.575000 2.469525
v -0.010013 0.575000 2.493872
v 0.028057 0.575000 2.485182
v 0.045000 4.525000 2.450000
v 0.028057 4.525000 2.414818
v -0.010013 4.525000 2.406128
v -0.040544 4.525000 2.430475
v -0.040544 4.525000 2.469525
v -0.010013 4.525000 2.493872
v 0.028057 4.525000 2.485182
v -0.000000 0.575000 2.450000
v -0.000000 4.525000 2.450000
f 1405 1406 1413 1412
f 1419 1406 1405
f 1420 1412 1413
f 1406 1407 1414 1413
f 1419 1407 1406
f 1420 1413 1414
f 1407 1408 1415 1414
f 1419 1408 1407
f 1420 1414 1415
f 1408 1409 1416 1415
f 1419 1409 1408
f 1420 1415 1416
f 1409 1410 1417 1416
f 1419 1410 1409
f 1420 1416 1417
f 1410 1411 1418 1417
f 1419 1411 1410
f 1420 1417 1418
f 1411 1405 1412 1418
f 1419 1405 1411
f 1420 1418 1412
o Horse_08
usemtl Horse_Tan
v 1.732412 2.140000 1.732412
v 2.042412 2.040416 1.422412
v 1.863226 2.040416 1.424820
v 1.607412 2.040416 1.607412
v 1.424820 2.040416 1.863226
v 1.422412 2.040416 2.042412
v 1.601597 2.040416 2.040003
v 1.857412 2.040416 1.857412
v 2.040003 2.040416 1.601597
v 2.170818 1.800000 1.294005
v 1.917412 1.800000 1.297412
v 1.555635 1.800000 1.555635
v 1.297412 1.800000 1.917412
v 1.294005 1.800000 2.170818
v 1.547412 1.800000 2.167412
v 1.909188 1.800000 1.909188
v 2.167412 1.800000 1.547412
v 2.042412 1.559584 1.422412
v 1.863226 1.559584 1.424820
v 1.607412 1.559584 1.607412
v 1.424820 1.559584 1.863226
v 1.422412 1.559584 2.042412
v 1.601597 1.559584 2.040003
v 1.857412 1.559584 1.857412
v 2.040003 1.559584 1.601597
v 1.732412 1.460000 1.732412
v 2.114249 1.960000 1.619275
v 2.154160 1.884583 1.478195
v 2.062849 1.865957 1.342183
v 1.909075 1.918147 1.313658
v 1.808632 2.001853 1.414100
v 1.837157 2.054043 1.567874
v 1.973170 2.035417 1.659186
v 2.347595 2.520000 1.385929
v 2.387506 2.444583 1.244850
v 2.296194 2.425957 1.108837
v 2.142420 2.478147 1.080312
v 2.041978 2.561853 1.180755
v 2.070503 2.614043 1.334529
v 2.206515 2.595417 1.425840
v 2.312239 2.820000 1.152584
v 2.520446 2.700000 0.944377
v 2.346299 2.700000 0.927015
v 2.146505 2.700000 1.079511
v 2.071512 2.700000 1.287032
v 2.177791 2.700000 1.393311
v 2.385313 2.700000 1.318318
v 2.537808 2.700000 1.118524
v 2.520446 2.460000 0.944377
v 2.346299 2.460000 0.927015
v 2.146505 2.460000 1.079511
v 2.071512 2.460000 1.287032
v 2.177791 2.460000 1.393311
v 2.385313 2.460000 1.318318
v 2.537808 2.460000 1.118524
v 2.312239 2.340000 1.152584
v 2.496087 2.640000 0.968736
v 2.636933 2.570000 0.827891
v 2.507299 2.570000 0.804317
v 2.369223 2.570000 0.904554
v 2.326678 2.570000 1.053122
v 2.411701 2.570000 1.138146
v 2.560269 2.570000 1.095600
v 2.660506 2.570000 0.957524
v 2.636933 2.430000 0.827891
v 2.507299 2.430000 0.804317
v 2.369223 2.430000 0.904554
v 2.326678 2.430000 1.053122
v 2.411701 2.430000 1.138146
v 2.560269 2.430000 1.095600
v 2.660506 2.430000 0.957524
v 2.496087 2.360000 0.968736
v 1.636316 1.631578 2.026497
v 1.656046 1.625789 2.098623
v 1.603648 1.614211 2.151020
v 1.531522 1.608422 2.131291
v 1.511793 1.614211 2.059165
v 1.564190 1.625789 2.006767
v 1.707027 0.991578 1.955786
v 1.726756 0.985789 2.027913
v 1.674359 0.974211 2.080310
v 1.602233 0.968422 2.060581
v 1.582503 0.974211 1.988454
v 1.634901 0.985789 1.936057
v 2.124220 1.631578 1.538593
v 2.143949 1.625789 1.610720
v 2.091552 1.614211 1.663117
v 2.019426 1.608422 1.643388
v 1.999696 1.614211 1.571261
v 2.052094 1.625789 1.518864
v 2.194931 0.991578 1.467882
v 2.214660 0.985789 1.540009
v 2.162263 0.974211 1.592406
v 2.090136 0.968422 1.572677
v 2.070407 0.974211 1.500550
v 2.122804 0.985789 1.448153
v 1.438327 1.631578 1.828507
v 1.458056 1.625789 1.900633
v 1.405659 1.614211 1.953031
v 1.333532 1.608422 1.933301
v 1.313803 1.614211 1.861175
v 1.366200 1.625789 1.808777
v 1.509037 0.991578 1.757796
v 1.528767 0.985789 1.829923
v 1.476369 0.974211 1.882320
v 1.404243 0.968422 1.862591
v 1.384513 0.974211 1.790464
v 1.436911 0.985789 1.738067
v 1.926230 1.631578 1.340603
v 1.945960 1.625789 1.412730
v 1.893562 1.614211 1.465127
v 1.821436 1.608422 1.445398
v 1.801706 1.614211 1.373271
v 1.854104 1.625789 1.320874
v 1.996941 0.991578 1.269892
v 2.016670 0.985789 1.342019
v 1.964273 0.974211 1.394416
v 1.892146 0.968422 1.374687
v 1.872417 0.974211 1.302560
v 1.924814 0.985789 1.250163
v 1.325825 1.850000 2.032932
v 1.379502 1.797622 2.032288
v 1.432535 1.797622 2.085321
v 1.431891 1.850000 2.138998
v 1.378215 1.902378 2.139642
v 1.325182 1.902378 2.086609
v 1.007627 1.520000 2.351130
v 1.061304 1.467622 2.350486
v 1.114337 1.467622 2.403519
v 1.113693 1.520000 2.457196
v 1.060017 1.572378 2.457840
v 1.006984 1.572378 2.404807
v 2.281477 2.752739 1.324768
v 2.344607 2.743937 1.335613
v 2.372777 2.729694 1.279186
v 2.327059 2.729694 1.233467
v 2.270632 2.743937 1.261638
v 2.316832 2.962739 1.289412
v 2.379962 2.953937 1.300258
v 2.408133 2.939694 1.243831
v 2.362414 2.939694 1.198112
v 2.305987 2.953937 1.226283
v 2.140056 2.752739 1.183346
v 2.203185 2.743937 1.194192
v 2.231356 2.729694 1.137765
v 2.185637 2.729694 1.092046
v 2.129210 2.743937 1.120217
v 2.175411 2.962739 1.147991
v 2.238541 2.953937 1.158836
v 2.266711 2.939694 1.102409
v 2.220993 2.939694 1.056690
v 2.164566 2.953937 1.084861
f 1421 1422 1423
f 1421 1423 1424
f 1421 1424 1425
f 1421 1425 1426
f 1421 1426 1427
f 1421 1427 1428
f 1421 1428 1429
f 1421 1429 1422
f 1422 1430 1431
f 1422 1431 1423
f 1423 1431 1432
f 1423 1432 1424
f 1424 1432 1433
f 1424 1433 1425
f 1425 1433 1434
f 1425 1434 1426
f 1426 1434 1435
f 1426 1435 1427
f 1427 1435 1436
f 1427 1436 1428
f 1428 1436 1437
f 1428 1437 1429
f 1429 1437 1430
f 1429 1430 1422
f 1430 1438 1439
f 1430 1439 1431
f 1431 1439 1440
f 1431 1440 1432
f 1432 1440 1441
f 1432 1441 1433
f 1433 1441 1442
f 1433 1442 1434
f 1434 1442 1443
f 1434 1443 1435
f 1435 1443 1444
f 1435 1444 1436
f 1436 1444 1445
f 1436 1445 1437
f 1437 1445 1438
f 1437 1438 1430
f 1446 1439 1438
f 1446 1440 1439
f 1446 1441 1440
f 1446 1442 1441
f 1446 1443 1442
f 1446 1444 1443
f 1446 1445 1444
f 1446 1438 1445
f 1447 1448 1455 1454
f 1448 1449 1456 1455
f 1449 1450 1457 1456
f 1450 1451 1458 1457
f 1451 1452 1459 1458
f 1452 1453 1460 1459
f 1453 1447 1454 1460
f 1461 1462 1463
f 1461 1463 1464
f 1461 1464 1465
f 1461 1465 1466
f 1461 1466 1467
f 1461 1467 1468
f 1461 1468 1462
f 1462 1469 1470
f 1462 1470 1463
f 1463 1470 1471
f 1463 1471 1464
f 1464 1471 1472
f 1464 1472 1465
f 1465 1472 1473
f 1465 1473 1466
f 1466 1473 1474
f 1466 1474 1467
f 1467 1474 1475
f 1467 1475 1468
f 1468 1475 1469
f 1468 1469 1462
f 1476 1470 1469
f 1476 1471 1470
f 1476 1472 1471
f 1476 1473 1472
f 1476 1474 1473
f 1476 1475 1474
f 1476 1469 1475
f 1477 1478 1479
f 1477 1479 1480
f 1477 1480 1481
f 1477 1481 1482
f 1477 1482 1483
f 1477 1483 1484
f 1477 1484 1478
f 1478 1485 1486
f 1478 1486 1479
f 1479 1486 1487
f 1479 1487 1480
f 1480 1487 1488
f 1480 1488 1481
f 1481 1488 1489
f 1481 1489 1482
f 1482 1489 1490
f 1482 1490 1483
f 1483 1490 1491
f 1483 1491 1484
f 1484 1491 1485
f 1484 1485 1478
f 1492 1486 1485
f 1492 1487 1486
f 1492 1488 1487
f 1492 1489 1488
f 1492 1490 1489
f 1492 1491 1490
f 1492 1485 1491
f 1493 1494 1500 1499
f 1494 1495 1501 1500
f 1495 1496 1502 1501
f 1496 1497 1503 1502
f 1497 1498 1504 1503
f 1498 1493 1499 1504
f 1505 1506 1512 1511
f 1506 1507 1513 1512
f 1507 1508 1514 1513
f 1508 1509 1515 1514
f 1509 1510 1516 1515
f 1510 1505 1511 1516
f 1517 1518 1524 1523
f 1518 1519 1525 1524
f 1519 1520 1526 1525
f 1520 1521 1527 1526
f 1521 1522 1528 1527
f 1522 1517 1523 1528
f 1529 1530 1536 1535
f 1530 1531 1537 1536
f 1531 1532 1538 1537
f 1532 1533 1539 1538
f 1533 1534 1540 1539
f 1534 1529 1535 1540
f 1541 1542 1548 1547
f 1542 1543 1549 1548
f 1543 1544 1550 1549
f 1544 1545 1551 1550
f 1545 1546 1552 1551
f 1546 1541 1547 1552
f 1553 1554 1559 1558
f 1554 1555 1560 1559
f 1555 1556 1561 1560
f 1556 1557 1562 1561
f 1557 1553 1558 1562
f 1563 1564 1569 1568
f 1564 1565 1570 1569
f 1565 1566 1571 1570
f 1566 1567 1572 1571
f 1567 1563 1568 1572
o Horse_Pole_08
usemtl Gold
v 1.777412 0.575000 1.732412
v 1.760469 0.575000 1.697229
v 1.722398 0.575000 1.688540
v 1.691868 0.575000 1.712887
v 1.691868 0.575000 1.751936
v 1.722398 0.575000 1.776283
v 1.760469 0.575000 1.767594
v 1.777412 4.525000 1.732412
v 1.760469 4.525000 1.697229
v 1.722398 4.525000 1.688540
v 1.691868 4.525000 1.712887
v 1.691868 4.525000 1.751936
v 1.722398 4.525000 1.776283
v 1.760469 4.525000 1.767594
v 1.732412 0.575000 1.732412
v 1.732412 4.525000 1.732412
f 1573 1574 1581 1580
f 1587 1574 1573
f 1588 1580 1581
f 1574 1575 1582 1581
f 1587 1575 1574
f 1588 1581 1582
f 1575 1576 1583 1582
f 1587 1576 1575
f 1588 1582 1583
f 1576 1577 1584 1583
f 1587 1577 1576
f 1588 1583 1584
f 1577 1578 1585 1584
f 1587 1578 1577
f 1588 1584 1585
f 1578 1579 1586 1585
f 1587 1579 1578
f 1588 1585 1586
f 1579 1573 1580 1586
f 1587 1573 1579
f 1588 1586 1580
o Light_01
usemtl Lights
v 3.200000 4.360000 -0.000000
v 3.295263 4.305000 -0.000000
v 3.247631 4.305000 -0.082500
v 3.152369 4.305000 -0.082500
v 3.104737 4.305000 -0.000000
v 3.152369 4.305000 0.082500
v 3.247631 4.305000 0.082500
v 3.295263 4.195000 -0.000000
v 3.247631 4.195000 -0.082500
v 3.152369 4.195000 -0.082500
v 3.104737 4.195000 -0.000000
v 3.152369 4.195000 0.082500
v 3.247631 4.195000 0.082500
v 3.200000 4.140000 -0.000000
f 1589 1590 1591
f 1589 1591 1592
f 1589 1592 1593
f 1589 1593 1594
f 1589 1594 1595
f 1589 1595 1590
f 1590 1596 1597
f 1590 1597 1591
f 1591 1597 1598
f 1591 1598 1592
f 1592 1598 1599
f 1592 1599 1593
f 1593 1599 1600
f 1593 1600 1594
f 1594 1600 1601
f 1594 1601 1595
f 1595 1601 1596
f 1595 1596 1590
f 1602 1597 1596
f 1602 1598 1597
f 1602 1599 1598
f 1602 1600 1599
f 1602 1601 1600
f 1602 1596 1601
o Light_02
usemtl Lights
v 2.956415 4.360000 -1.224587
v 3.051677 4.305000 -1.224587
v 3.004046 4.305000 -1.307087
v 2.908783 4.305000 -1.307087
v 2.861152 4.305000 -1.224587
v 2.908783 4.305000 -1.142087
v 3.004046 4.305000 -1.142087
v 3.051677 4.195000 -1.224587
v 3.004046 4.195000 -1.307087
v 2.908783 4.195000 -1.307087
v 2.861152 4.195000 -1.224587
v 2.908783 4.195000 -1.142087
v 3.004046 4.195000 -1.142087
v 2.956415 4.140000 -1.224587
f 1603 1604 1605
f 1603 1605 1606
f 1603 1606 1607
f 1603 1607 1608
f 1603 1608 1609
f 1603 1609 1604
f 1604 1610 1611
f 1604 1611 1605
f 1605 1611 1612
f 1605 1612 1606
f 1606 1612 1613
f 1606 1613 1607
f 1607 1613 1614
f 1607 1614 1608
f 1608 1614 1615
f 1608 1615 1609
f 1609 1615 1610
f 1609 1610 1604
f 1616 1611 1610
f 1616 1612 1611
f 1616 1613 1612
f 1616 1614 1613
f 1616 1615 1614
f 1616 1610 1615
o Light_03
usemtl Lights
v 2.262742 4.360000 -2.262742
v 2.358004 4.305000 -2.262742
v 2.310373 4.305000 -2.345242
v 2.215110 4.305000 -2.345242
v 2.167479 4.305000 -2.262742
v 2.215110 4.305000 -2.180242
v 2.310373 4.305000 -2.180242
v 2.358004 4.195000 -2.262742
v 2.310373 4.195000 -2.345242
v 2.215110 4.195000 -2.345242
v 2.167479 4.195000 -2.262742
v 2.215110 4.195000 -2.180242
v 2.310373 4.195000 -2.180242
v 2.262742 4.140000 -2.262742
f 1617 1618 1619
f 1617 1619 1620
f 1617 1620 1621
f 1617 1621 1622
f 1617 1622 1623
f 1617 1623 1618
f 1618 1624 1625
f 1618 1625 1619
f 1619 1625 1626
f 1619 1626 1620
f 1620 1626 1627
f 1620 1627 1621
f 1621 1627 1628
f 1621 1628 1622
f 1622 1628 1629
f 1622 1629 1623
f 1623 1629 1624
f 1623 1624 1618
f 1630 1625 1624
f 1630 1626 1625
f 1630 1627 1626
f 1630 1628 1627
f 1630 1629 1628
f 1630 1624 1629
o Light_04
usemtl Lights
v 1.224587 4.360000 -2.956415
v 1.319850 4.305000 -2.956415
v 1.272218 4.305000 -3.038915
v 1.176956 4.305000 -3.038915
v 1.129324 4.305000 -2.956415
v 1.176956 4.305000 -2.873915
v 1.272218 4.305000 -2.873915
v 1.319850 4.195000 -2.956415
v 1.272218 4.195000 -3.038915
v 1.176956 4.195000 -3.038915
v 1.129324 4.195000 -2.956415
v 1.176956 4.195000 -2.873915
v 1.272218 4.195000 -2.873915
v 1.224587 4.140000 -2.956415
f 1631 1632 1633
f 1631 1633 1634
f 1631 1634 1635
f 1631 1635 1636
f 1631 1636 1637
f 1631 1637 1632
f 1632 1638 1639
f 1632 1639 1633
f 1633 1639 1640
f 1633 1640 1634
f 1634 1640 1641
f 1634 1641 1635
f 1635 1641 1642
f 1635 1642 1636
f 1636 1642 1643
f 1636 1643 1637
f 1637 1643 1638
f 1637 1638 1632
f 1644 1639 1638
f 1644 1640 1639
f 1644 1641 1640
f 1644 1642 1641
f 1644 1643 1642
f 1644 1638 1643
o Light_05
usemtl Lights
v 0.000000 4.360000 -3.200000
v 0.095263 4.305000 -3.200000
v 0.047631 4.305000 -3.282500
v -0.047631 4.305000 -3.282500
v -0.095263 4.305000 -3.200000
v -0.047631 4.305000 -3.117500
v 0.047631 4.305000 -3.117500
v 0.095263 4.195000 -3.200000
v 0.047631 4.195000 -3.282500
v -0.047631 4.195000 -3.282500
v -0.095263 4.195000 -3.200000
v -0.047631 4.195000 -3.117500
v 0.047631 4.195000 -3.117500
v 0.000000 4.140000 -3.200000
f 1645 1646 1647
f 1645 1647 1648
f 1645 1648 1649
f 1645 1649 1650
f 1645 1650 1651
f 1645 1651 1646
f 1646 1652 1653
f 1646 1653 1647
f 1647 1653 1654
f 1647 1654 1648
f 1648 1654 1655
f 1648 1655 1649
f 1649 1655 1656
f 1649 1656 1650
f 1650 1656 1657
f 1650 1657 1651
f 1651 1657 1652
f 1651 1652 1646
f 1658 1653 1652
f 1658 1654 1653
f 1658 1655 1654
f 1658 1656 1655
f 1658 1657 1656
f 1658 1652 1657
o Light_06
usemtl Lights
v -1.224587 4.360000 -2.956415
v -1.129324 4.305000 -2.956415
v -1.176956 4.305000 -3.038915
v -1.272218 4.305000 -3.038915
v -1.319850 4.305000 -2.956415
v -1.272218 4.305000 -2.873915
v -1.176956 4.305000 -2.873915
v -1.129324 4.195000 -2.956415
v -1.176956 4.195000 -3.038915
v -1.272218 4.195000 -3.038915
v -1.319850 4.195000 -2.956415
v -1.272218 4.195000 -2.873915
v -1.176956 4.195000 -2.873915
v -1.224587 4.140000 -2.956415
f 1659 1660 1661
f 1659 1661 1662
f 1659 1662 1663
f 1659 1663 1664
f 1659 1664 1665
f 1659 1665 1660
f 1660 1666 1667
f 1660 1667 1661
f 1661 1667 1668
f 1661 1668 1662
f 1662 1668 1669
f 1662 1669 1663
f 1663 1669 1670
f 1663 1670 1664
f 1664 1670 1671
f 1664 1671 1665
f 1665 1671 1666
f 1665 1666 1660
f 1672 1667 1666
f 1672 1668 1667
f 1672 1669 1668
f 1672 1670 1669
f 1672 1671 1670
f 1672 1666 1671
o Light_07
usemtl Lights
v -2.262742 4.360000 -2.262742
v -2.167479 4.305000 -2.262742
v -2.215110 4.305000 -2.345242
v -2.310373 4.305000 -2.345242
v -2.358004 4.305000 -2.262742
v -2.310373 4.305000 -2.180242
v -2.215110 4.305000 -2.180242
v -2.167479 4.195000 -2.262742
v -2.215110 4.195000 -2.345242
v -2.310373 4.195000 -2.345242
v -2.358004 4.195000 -2.262742
v -2.310373 4.195000 -2.180242
v -2.215110 4.195000 -2.180242
v -2.262742 4.140000 -2.262742
f 1673 1674 1675
f 1673 1675 1676
f 1673 1676 1677
f 1673 1677 1678
f 1673 1678 1679
f 1673 1679 1674
f 1674 1680 1681
f 1674 1681 1675
f 1675 1681 1682
f 1675 1682 1676
f 1676 1682 1683
f 1676 1683 1677
f 1677 1683 1684
f 1677 1684 1678
f 1678 1684 1685
f 1678 1685 1679
f 1679 1685 1680
f 1679 1680 1674
f 1686 1681 1680
f 1686 1682 1681
f 1686 1683 1682
f 1686 1684 1683
f 1686 1685 1684
f 1686 1680 1685
o Light_08
usemtl Lights
v -2.956415 4.360000 -1.224587
v -2.861152 4.305000 -1.224587
v -2.908783 4.305000 -1.307087
v -3.004046 4.305000 -1.307087
v -3.051677 4.305000 -1.224587
v -3.004046 4.305000 -1.142087
v -2.908783 4.305000 -1.142087
v -2.861152 4.195000 -1.224587
v -2.908783 4.195000 -1.307087
v -3.004046 4.195000 -1.307087
v -3.051677 4.195000 -1.224587
v -3.004046 4.195000 -1.142087
v -2.908783 4.195000 -1.142087
v -2.956415 4.140000 -1.224587
f 1687 1688 1689
f 1687 1689 1690
f 1687 1690 1691
f 1687 1691 1692
f 1687 1692 1693
f 1687 1693 1688
f 1688 1694 1695
f 1688 1695 1689
f 1689 1695 1696
f 1689 1696 1690
f 1690 1696 1697
f 1690 1697 1691
f 1691 1697 1698
f 1691 1698 1692
f 1692 1698 1699
f 1692 1699 1693
f 1693 1699 1694
f 1693 1694 1688
f 1700 1695 1694
f 1700 1696 1695
f 1700 1697 1696
f 1700 1698 1697
f 1700 1699 1698
f 1700 1694 1699
o Light_09
usemtl Lights
v -3.200000 4.360000 -0.000000
v -3.104737 4.305000 -0.000000
v -3.152369 4.305000 -0.082500
v -3.247631 4.305000 -0.082500
v -3.295263 4.305000 -0.000000
v -3.247631 4.305000 0.082500
v -3.152369 4.305000 0.082500
v -3.104737 4.195000 -0.000000
v -3.152369 4.195000 -0.082500
v -3.247631 4.195000 -0.082500
v -3.295263 4.195000 -0.000000
v -3.247631 4.195000 0.082500
v -3.152369 4.195000 0.082500
v -3.200000 4.140000 -0.000000
f 1701 1702 1703
f 1701 1703 1704
f 1701 1704 1705
f 1701 1705 1706
f 1701 1706 1707
f 1701 1707 1702
f 1702 1708 1709
f 1702 1709 1703
f 1703 1709 1710
f 1703 1710 1704
f 1704 1710 1711
f 1704 1711 1705
f 1705 1711 1712
f 1705 1712 1706
f 1706 1712 1713
f 1706 1713 1707
f 1707 1713 1708
f 1707 1708 1702
f 1714 1709 1708
f 1714 1710 1709
f 1714 1711 1710
f 1714 1712 1711
f 1714 1713 1712
f 1714 1708 1713
o Light_10
usemtl Lights
v -2.956415 4.360000 1.224587
v -2.861152 4.305000 1.224587
v -2.908783 4.305000 1.142087
v -3.004046 4.305000 1.142087
v -3.051677 4.305000 1.224587
v -3.004046 4.305000 1.307087
v -2.908783 4.305000 1.307087
v -2.861152 4.195000 1.224587
v -2.908783 4.195000 1.142087
v -3.004046 4.195000 1.142087
v -3.051677 4.195000 1.224587
v -3.004046 4.195000 1.307087
v -2.908783 4.195000 1.307087
v -2.956415 4.140000 1.224587
f 1715 1716 1717
f 1715 1717 1718
f 1715 1718 1719
f 1715 1719 1720
f 1715 1720 1721
f 1715 1721 1716
f 1716 1722 1723
f 1716 1723 1717
f 1717 1723 1724
f 1717 1724 1718
f 1718 1724 1725
f 1718 1725 1719
f 1719 1725 1726
f 1719 1726 1720
f 1720 1726 1727
f 1720 1727 1721
f 1721 1727 1722
f 1721 1722 1716
f 1728 1723 1722
f 1728 1724 1723
f 1728 1725 1724
f 1728 1726 1725
f 1728 1727 1726
f 1728 1722 1727
o Light_11
usemtl Lights
v -2.262742 4.360000 2.262742
v -2.167479 4.305000 2.262742
v -2.215110 4.305000 2.180242
v -2.310373 4.305000 2.180242
v -2.358004 4.305000 2.262742
v -2.310373 4.305000 2.345242
v -2.215110 4.305000 2.345242
v -2.167479 4.195000 2.262742
v -2.215110 4.195000 2.180242
v -2.310373 4.195000 2.180242
v -2.358004 4.195000 2.262742
v -2.310373 4.195000 2.345242
v -2.215110 4.195000 2.345242
v -2.262742 4.140000 2.262742
f 1729 1730 1731
f 1729 1731 1732
f 1729 1732 1733
f 1729 1733 1734
f 1729 1734 1735
f 1729 1735 1730
f 1730 1736 1737
f 1730 1737 1731
f 1731 1737 1738
f 1731 1738 1732
f 1732 1738 1739
f 1732 1739 1733
f 1733 1739 1740
f 1733 1740 1734
f 1734 1740 1741
f 1734 1741 1735
f 1735 1741 1736
f 1735 1736 1730
f 1742 1737 1736
f 1742 1738 1737
f 1742 1739 1738
f 1742 1740 1739
f 1742 1741 1740
f 1742 1736 1741
o Light_12
usemtl Lights
v -1.224587 4.360000 2.956415
v -1.129324 4.305000 2.956415
v -1.176956 4.305000 2.873915
v -1.272218 4.305000 2.873915
v -1.319850 4.305000 2.956415
v -1.272218 4.305000 3.038915
v -1.176956 4.305000 3.038915
v -1.129324 4.195000 2.956415
v -1.176956 4.195000 2.873915
v -1.272218 4.195000 2.873915
v -1.319850 4.195000 2.956415
v -1.272218 4.195000 3.038915
v -1.176956 4.195000 3.038915
v -1.224587 4.140000 2.956415
f 1743 1744 1745
f 1743 1745 1746
f 1743 1746 1747
f 1743 1747 1748
f 1743 1748 1749
f 1743 1749 1744
f 1744 1750 1751
f 1744 1751 1745
f 1745 1751 1752
f 1745 1752 1746
f 1746 1752 1753
f 1746 1753 1747
f 1747 1753 1754
f 1747 1754 1748
f 1748 1754 1755
f 1748 1755 1749
f 1749 1755 1750
f 1749 1750 1744
f 1756 1751 1750
f 1756 1752 1751
f 1756 1753 1752
f 1756 1754 1753
f 1756 1755 1754
f 1756 1750 1755
o Light_13
usemtl Lights
v -0.000000 4.360000 3.200000
v 0.095263 4.305000 3.200000
v 0.047631 4.305000 3.117500
v -0.047631 4.305000 3.117500
v -0.095263 4.305000 3.200000
v -0.047631 4.305000 3.282500
v 0.047631 4.305000 3.282500
v 0.095263 4.195000 3.200000
v 0.047631 4.195000 3.117500
v -0.047631 4.195000 3.117500
v -0.095263 4.195000 3.200000
v -0.047631 4.195000 3.282500
v 0.047631 4.195000 3.282500
v -0.000000 4.140000 3.200000
f 1757 1758 1759
f 1757 1759 1760
f 1757 1760 1761
f 1757 1761 1762
f 1757 1762 1763
f 1757 1763 1758
f 1758 1764 1765
f 1758 1765 1759
f 1759 1765 1766
f 1759 1766 1760
f 1760 1766 1767
f 1760 1767 1761
f 1761 1767 1768
f 1761 1768 1762
f 1762 1768 1769
f 1762 1769 1763
f 1763 1769 1764
f 1763 1764 1758
f 1770 1765 1764
f 1770 1766 1765
f 1770 1767 1766
f 1770 1768 1767
f 1770 1769 1768
f 1770 1764 1769
o Light_14
usemtl Lights
v 1.224587 4.360000 2.956415
v 1.319850 4.305000 2.956415
v 1.272218 4.305000 2.873915
v 1.176956 4.305000 2.873915
v 1.129324 4.305000 2.956415
v 1.176956 4.305000 3.038915
v 1.272218 4.305000 3.038915
v 1.319850 4.195000 2.956415
v 1.272218 4.195000 2.873915
v 1.176956 4.195000 2.873915
v 1.129324 4.195000 2.956415
v 1.176956 4.195000 3.038915
v 1.272218 4.195000 3.038915
v 1.224587 4.140000 2.956415
f 1771 1772 1773
f 1771 1773 1774
f 1771 1774 1775
f 1771 1775 1776
f 1771 1776 1777
f 1771 1777 1772
f 1772 1778 1779
f 1772 1779 1773
f 1773 1779 1780
f 1773 1780 1774
f 1774 1780 1781
f 1774 1781 1775
f 1775 1781 1782
f 1775 1782 1776
f 1776 1782 1783
f 1776 1783 1777
f 1777 1783 1778
f 1777 1778 1772
f 1784 1779 1778
f 1784 1780 1779
f 1784 1781 1780
f 1784 1782 1781
f 1784 1783 1782
f 1784 1778 1783
o Light_15
usemtl Lights
v 2.262742 4.360000 2.262742
v 2.358004 4.305000 2.262742
v 2.310373 4.305000 2.180242
v 2.215110 4.305000 2.180242
v 2.167479 4.305000 2.262742
v 2.215110 4.305000 2.345242
v 2.310373 4.305000 2.345242
v 2.358004 4.195000 2.262742
v 2.310373 4.195000 2.180242
v 2.215110 4.195000 2.180242
v 2.167479 4.195000 2.262742
v 2.215110 4.195000 2.345242
v 2.310373 4.195000 2.345242
v 2.262742 4.140000 2.262742
f 1785 1786 1787
f 1785 1787 1788
f 1785 1788 1789
f 1785 1789 1790
f 1785 1790 1791
f 1785 1791 1786
f 1786 1792 1793
f 1786 1793 1787
f 1787 1793 1794
f 1787 1794 1788
f 1788 1794 1795
f 1788 1795 1789
f 1789 1795 1796
f 1789 1796 1790
f 1790 1796 1797
f 1790 1797 1791
f 1791 1797 1792
f 1791 1792 1786
f 1798 1793 1792
f 1798 1794 1793
f 1798 1795 1794
f 1798 1796 1795
f 1798 1797 1796
f 1798 1792 1797
o Light_16
usemtl Lights
v 2.956415 4.360000 1.224587
v 3.051677 4.305000 1.224587
v 3.004046 4.305000 1.142087
v 2.908783 4.305000 1.142087
v 2.861152 4.305000 1.224587
v 2.908783 4.305000 1.307087
v 3.004046 4.305000 1.307087
v 3.051677 4.195000 1.224587
v 3.004046 4.195000 1.142087
v 2.908783 4.195000 1.142087
v 2.861152 4.195000 1.224587
v 2.908783 4.195000 1.307087
v 3.004046 4.195000 1.307087
v 2.956415 4.140000 1.224587
f 1799 1800 1801
f 1799 1801 1802
f 1799 1802 1803
f 1799 1803 1804
f 1799 1804 1805
f 1799 1805 1800
f 1800 1806 1807
f 1800 1807 1801
f 1801 1807 1808
f 1801 1808 1802
f 1802 1808 1809
f 1802 1809 1803
f 1803 1809 1810
f 1803 1810 1804
f 1804 1810 1811
f 1804 1811 1805
f 1805 1811 1806
f 1805 1806 1800
f 1812 1807 1806
f 1812 1808 1807
f 1812 1809 1808
f 1812 1810 1809
f 1812 1811 1810
f 1812 1806 1811
